<?xml version="1.0" encoding="UTF-8"?>
<svg version="1.1" xmlns="http://www.w3.org/2000/svg" width="666" height="375">
<path d="M0 0 C1 1 1 1 1.01953125 2.86328125 C0.50691763 8.92759706 -0.91973977 14.18573478 -2.953125 19.91015625 C-4.33258365 23.98161816 -5.33540806 28.10824063 -6.33984375 32.28515625 C-7.13481318 35.55440923 -8.0468225 38.77386078 -9 42 C-7.86175781 41.69835937 -6.72351563 41.39671875 -5.55078125 41.0859375 C-1.12688247 39.98069122 3.30330256 39.277647 7.8125 38.625 C14.51593552 37.6171085 21.12956329 36.39236307 27.75 34.9375 C34.73856122 33.40438662 41.64959558 32.28980633 48.7578125 31.44140625 C51.58102827 31.05704073 54.24271961 30.51342481 57 29.8125 C60.94306207 28.89170961 64.04805259 28.83766253 68 30 C70.5 32.1875 70.5 32.1875 72 35 C71.65220951 39.51506582 70.36447429 42.55462257 68 46.375 C67.37222656 47.41269531 66.74445313 48.45039062 66.09765625 49.51953125 C65.75879395 50.07721191 65.41993164 50.63489258 65.07080078 51.20947266 C63.12858107 54.45713325 61.28642753 57.76112243 59.4375 61.0625 C59.05577637 61.74280273 58.67405273 62.42310547 58.28076172 63.12402344 C52.75581776 72.91705905 52.75581776 72.91705905 47.5703125 82.890625 C45.89827129 86.20143298 44.09811871 89.40927344 42.25 92.625 C41.90074463 93.23400146 41.55148926 93.84300293 41.19165039 94.47045898 C38.96387148 98.34851922 36.70532921 102.20770226 34.4375 106.0625 C31.43594578 111.18958923 28.61648801 116.39936328 25.8203125 121.640625 C23.58506376 125.76576216 21.25666306 129.83224411 18.91699219 133.89868164 C16.33193081 138.39862661 13.82878914 142.9379506 11.35546875 147.5 C5.53093777 158.24265079 -0.54750082 168.84672349 -6.75 179.375 C-8.97698839 183.1804858 -11.05961521 187.00171985 -12.98828125 190.96484375 C-16.62645796 198.28333822 -20.75511651 205.35836729 -24.82055664 212.44458008 C-31.67254004 224.39133684 -38.41098324 236.40623506 -45 248.5 C-45.99982084 250.33343105 -46.99981413 252.16676807 -48 254 C-48.43441406 254.79792969 -48.86882812 255.59585938 -49.31640625 256.41796875 C-50.13203762 257.90349172 -50.96102166 259.38177987 -51.8046875 260.8515625 C-53.03751907 263.0017057 -53.03751907 263.0017057 -54.0703125 265.3359375 C-55.212002 267.61133267 -56.13430995 269.2626621 -58 271 C-61.46776018 271.9072952 -64.55117524 272.0054201 -68 271 C-70.18899166 268.6315828 -71.66261682 265.95456662 -73.1875 263.125 C-75.387711 259.09569793 -77.64977516 255.10505877 -79.9375 251.125 C-82.36176621 246.90033468 -84.7464197 242.66036783 -87.0625 238.375 C-89.6685131 233.55954101 -92.40693911 228.83141723 -95.19140625 224.1171875 C-98.36995381 218.63882692 -101.40393519 213.07981182 -104.46484375 207.53515625 C-111.6347415 194.45269876 -111.6347415 194.45269876 -119.47265625 181.765625 C-119.93542969 181.05921875 -120.39820313 180.3528125 -120.875 179.625 C-121.28492188 179.01914063 -121.69484375 178.41328125 -122.1171875 177.7890625 C-123 176 -123 176 -123 172 C-123.66 172 -124.32 172 -125 172 C-125.4125 171.22398437 -125.825 170.44796875 -126.25 169.6484375 C-132.45266297 158.0461349 -138.97433945 146.65901735 -145.78027344 135.40161133 C-148.49514529 130.89193369 -151.05104601 126.31503851 -153.5390625 121.67578125 C-155.13702401 118.74903357 -156.80997777 115.8745138 -158.5 113 C-161.25587892 108.31017096 -163.88352415 103.56666806 -166.46875 98.78125 C-168.09706402 95.82370004 -169.78955055 92.91076486 -171.5 90 C-174.20345814 85.39585731 -176.79472708 80.74590531 -179.3359375 76.05078125 C-183.85331002 67.76893163 -188.44587895 59.51978711 -193.3125 51.4375 C-194.00666016 50.28121094 -194.00666016 50.28121094 -194.71484375 49.1015625 C-195.54105452 47.75049443 -196.38607899 46.41065823 -197.25390625 45.0859375 C-199.88271941 40.92746651 -200.83087962 37.89295779 -200 33 C-198.1875 30.5 -198.1875 30.5 -195 29 C-186.65264827 28.96611607 -178.18881344 30.86923383 -170 32.3125 C-168.72560059 32.53397705 -167.45120117 32.7554541 -166.13818359 32.98364258 C-158.16516906 34.38735651 -150.24547047 35.9497834 -142.34008789 37.69067383 C-136.54700513 38.9455743 -130.75277647 39.72135622 -124.8671875 40.4296875 C-117.49207101 41.51733094 -110.25159759 43.28885555 -103 45 C-102.98018066 44.39003174 -102.96036133 43.78006348 -102.93994141 43.15161133 C-102.84432124 40.37149467 -102.73479295 37.59209154 -102.625 34.8125 C-102.5940625 33.85279297 -102.563125 32.89308594 -102.53125 31.90429688 C-102.49257813 30.97294922 -102.45390625 30.04160156 -102.4140625 29.08203125 C-102.36693115 27.80162964 -102.36693115 27.80162964 -102.31884766 26.49536133 C-101.95885484 23.67799029 -101.27701467 21.53658378 -100 19 C-96.30178209 16.53452139 -92.72598403 15.98827852 -88.4375 15.1875 C-87.56633545 15.01935791 -86.6951709 14.85121582 -85.79760742 14.67797852 C-83.88938807 14.31042878 -81.98058388 13.94590591 -80.07128906 13.58398438 C-76.87644276 12.97650644 -73.68417437 12.35669422 -70.4921875 11.734375 C-60.46075009 9.7838586 -50.43033584 7.8649369 -40.35229492 6.17041016 C-36.28439784 5.46515547 -32.26375812 4.62516859 -28.23828125 3.70703125 C-27.22660889 3.47757813 -26.21493652 3.248125 -25.17260742 3.01171875 C-23.20539429 2.56037705 -21.240475 2.09886055 -19.27856445 1.625 C-12.83455876 0.1441676 -6.61787642 -0.56053887 0 0 Z " fill="#8B73FC" transform="translate(397,52)"/>
<path d="M0 0 C1 1 1 1 1.01953125 2.86328125 C0.50691763 8.92759706 -0.91973977 14.18573478 -2.953125 19.91015625 C-4.33258365 23.98161816 -5.33540806 28.10824063 -6.33984375 32.28515625 C-7.13481318 35.55440923 -8.0468225 38.77386078 -9 42 C-9.66 42 -10.32 42 -11 42 C-11 43.98 -11 45.96 -11 48 C-11.66 48 -12.32 48 -13 48 C-13.04898438 48.59167969 -13.09796875 49.18335938 -13.1484375 49.79296875 C-13.57202633 54.26986448 -14.28852009 57.82826772 -16 62 C-16.21953787 63.37939572 -16.40469779 64.76452968 -16.5625 66.15234375 C-16.706875 67.42207031 -16.85125 68.69179687 -17 70 C-14.43742878 69.52121172 -11.87494141 69.04198207 -9.3125 68.5625 C-8.59126953 68.42779297 -7.87003906 68.29308594 -7.12695312 68.15429688 C-6.42119141 68.02216797 -5.71542969 67.89003906 -4.98828125 67.75390625 C-4.29524902 67.625 -3.6022168 67.49609375 -2.88818359 67.36328125 C-1.37704757 67.0725429 0.12738589 66.74705012 1.62890625 66.41015625 C4.53095793 65.9081539 7.30623312 65.86774934 10.25 65.875 C11.83554687 65.87113281 11.83554687 65.87113281 13.453125 65.8671875 C16 66 16 66 17 67 C17.04063832 68.66617115 17.042721 70.33388095 17 72 C16.34 72 15.68 72 15 72 C15 73.32 15 74.64 15 76 C14.34 76 13.68 76 13 76 C12.82984375 76.54527344 12.6596875 77.09054688 12.484375 77.65234375 C10.44768787 83.98990742 7.97739006 90.04521989 5 96 C4.34 96 3.68 96 3 96 C3 97.32 3 98.64 3 100 C2.34 100 1.68 100 1 100 C0.91234375 100.84046875 0.8246875 101.6809375 0.734375 102.546875 C-0.11571774 106.5441196 -1.76264961 109.73081859 -3.75 113.25 C-4.48136896 114.58283976 -5.21183783 115.91617382 -5.94140625 117.25 C-6.29605957 117.89324219 -6.65071289 118.53648437 -7.01611328 119.19921875 C-10.53522098 125.6401464 -13.59276771 132.28125908 -16.59765625 138.97265625 C-19.25846884 144.71675029 -22.13956932 150.35332848 -25 156 C-25.66 156 -26.32 156 -27 156 C-27.0825 156.680625 -27.165 157.36125 -27.25 158.0625 C-28.02638023 161.10332256 -29.331137 163.35083964 -30.9453125 166.01953125 C-32.79592795 169.49457582 -33.87434745 173.23929717 -35 177 C-35.66 177 -36.32 177 -37 177 C-37.0825 177.515625 -37.165 178.03125 -37.25 178.5625 C-38 181 -38 181 -39.875 184.125 C-41.53264119 186.90536979 -42.4575465 189.42870661 -43.25 192.5625 C-45.05008789 199.01933699 -48.53642619 204.46901844 -51.93603516 210.17578125 C-54.30108257 214.23076846 -56.45587759 218.40301259 -58.65234375 222.55078125 C-60 225 -60 225 -61 226 C-63.5 226.125 -63.5 226.125 -66 226 C-67 225 -67 225 -67.17578125 221.41796875 C-67.12061919 217.2172377 -66.30668491 213.34801281 -65.1875 209.3125 C-64.81813089 207.90778306 -64.44965303 206.50283149 -64.08203125 205.09765625 C-63.89850098 204.40687988 -63.7149707 203.71610352 -63.52587891 203.00439453 C-61.44169491 195.06049916 -59.80828858 187.10232706 -58.5390625 178.9921875 C-57.788698 174.82712079 -56.70695939 170.77037204 -55.5859375 166.69140625 C-55.00792957 164.03642314 -54.89191445 161.70705171 -55 159 C-58.70944689 158.72179148 -61.38064563 159.0413161 -64.75 160.5 C-69.4785211 162.45188953 -73.95881119 162.27891823 -79 162 C-79.30529551 157.5223325 -78.80248398 153.89966461 -77.625 149.5625 C-75.93782882 143.00942934 -74.82681041 136.43576589 -73.8125 129.75 C-73.63525391 128.61175781 -73.45800781 127.47351563 -73.27539062 126.30078125 C-72.84534991 123.53457342 -72.42029266 120.76770264 -72 118 C-80.398424 118.35240912 -87.79586561 119.55114512 -95.80859375 122.16015625 C-99.03582342 123.00942722 -101.67958268 123.22983743 -105 123 C-106.76091453 121.23908547 -106.15194603 118.80334287 -106.15625 116.41015625 C-106.0732226 104.69291482 -105.10054554 93.00702962 -104.28173828 81.32299805 C-103.40545497 68.71425488 -102.83955971 56.20573892 -102.98388672 43.56469727 C-103.16081537 25.10660929 -103.16081537 25.10660929 -100 19 C-96.30178209 16.53452139 -92.72598403 15.98827852 -88.4375 15.1875 C-87.56633545 15.01935791 -86.6951709 14.85121582 -85.79760742 14.67797852 C-83.88938807 14.31042878 -81.98058388 13.94590591 -80.07128906 13.58398438 C-76.87644276 12.97650644 -73.68417437 12.35669422 -70.4921875 11.734375 C-60.46075009 9.7838586 -50.43033584 7.8649369 -40.35229492 6.17041016 C-36.28439784 5.46515547 -32.26375812 4.62516859 -28.23828125 3.70703125 C-27.22660889 3.47757813 -26.21493652 3.248125 -25.17260742 3.01171875 C-23.20539429 2.56037705 -21.240475 2.09886055 -19.27856445 1.625 C-12.83455876 0.1441676 -6.61787642 -0.56053887 0 0 Z " fill="#FEC923" transform="translate(397,52)"/>
<path d="M0 0 C2.31 0 4.62 0 7 0 C6.05424284 3.31015007 5.05635727 5.91581781 3.1328125 8.7890625 C0.98721801 12.01924322 -0.69270098 15.25903208 -2.375 18.75 C-5.28885012 24.70149382 -8.50182625 30.37493662 -12 36 C-15.64280717 41.96355116 -19.11060647 47.98493773 -22.42578125 54.13671875 C-24.10357366 57.18838585 -25.85555992 60.18812929 -27.625 63.1875 C-29.89711853 67.05557049 -32.02613146 70.9329157 -33.98828125 74.96484375 C-37.62645796 82.28333822 -41.75511651 89.35836729 -45.82055664 96.44458008 C-52.67254004 108.39133684 -59.41098324 120.40623506 -66 132.5 C-66.99982084 134.33343105 -67.99981413 136.16676807 -69 138 C-69.43441406 138.79792969 -69.86882812 139.59585938 -70.31640625 140.41796875 C-71.13203762 141.90349172 -71.96102166 143.38177987 -72.8046875 144.8515625 C-74.03751907 147.0017057 -74.03751907 147.0017057 -75.0703125 149.3359375 C-76.212002 151.61133267 -77.13430995 153.2626621 -79 155 C-82.46776018 155.9072952 -85.55117524 156.0054201 -89 155 C-91.18899166 152.6315828 -92.66261682 149.95456662 -94.1875 147.125 C-96.387711 143.09569793 -98.64977516 139.10505877 -100.9375 135.125 C-103.36176621 130.90033468 -105.7464197 126.66036783 -108.0625 122.375 C-110.71420286 117.47511428 -113.51060785 112.66926736 -116.328125 107.86328125 C-123.18040346 96.12795389 -123.18040346 96.12795389 -125 91 C-123.68 91 -122.36 91 -121 91 C-120.38125 92.36125 -120.38125 92.36125 -119.75 93.75 C-118.19056752 97.01895698 -118.19056752 97.01895698 -115.8125 99.1875 C-115.214375 99.785625 -114.61625 100.38375 -114 101 C-114 101.99 -114 102.98 -114 104 C-113.68911632 105.67099977 -113.35919668 107.33871537 -113 109 C-111.515 108.505 -111.515 108.505 -110 108 C-109.67 109.65 -109.34 111.3 -109 113 C-108.01 112.01 -108.01 112.01 -107 111 C-106.29925156 114.153368 -106 116.72724974 -106 120 C-105.05125 119.979375 -104.1025 119.95875 -103.125 119.9375 C-100 120 -100 120 -98 121 C-98.29296875 122.98567708 -98.5859375 124.97135417 -98.87890625 126.95703125 C-99.13904799 129.2025342 -99.13904799 129.2025342 -98 132 C-97.65179959 133.66362417 -97.31595508 135.32995171 -97 137 C-95.35 136.67 -93.7 136.34 -92 136 C-90.62309927 138.92591405 -89.98324369 140.73189901 -90.1875 144 C-90.28911997 147.25571406 -90.28911997 147.25571406 -87.5 149.875 C-86.675 150.57625 -85.85 151.2775 -85 152 C-84.01 151.67 -83.02 151.34 -82 151 C-81.26676204 148.98491642 -81.26676204 148.98491642 -81 147 C-80.34 147.33 -79.68 147.66 -79 148 C-79.99 146.02 -79.99 146.02 -81 144 C-79.35 144 -77.7 144 -76 144 C-74.23537317 140.91190305 -74 139.76687864 -74 136 C-73.34 135.34 -72.68 134.68 -72 134 C-72.32198966 130.90073181 -72.32198966 130.90073181 -73 128 C-71.68 128 -70.36 128 -69 128 C-69 128.66 -69 129.32 -69 130 C-68.34 130 -67.68 130 -67 130 C-66.87625 128.741875 -66.7525 127.48375 -66.625 126.1875 C-66.30131941 122.89674737 -65.93395001 121.90092502 -64 119 C-63.34 119 -62.68 119 -62 119 C-62 116.69 -62 114.38 -62 112 C-60.35 112 -58.7 112 -57 112 C-56.88785156 111.28457031 -56.77570313 110.56914062 -56.66015625 109.83203125 C-55.95543995 106.80884002 -54.86712202 104.43677312 -53.4375 101.6875 C-52.98246094 100.80449219 -52.52742188 99.92148437 -52.05859375 99.01171875 C-51.70925781 98.34785156 -51.35992187 97.68398438 -51 97 C-50.34 97 -49.68 97 -49 97 C-48.9175 95.7625 -48.835 94.525 -48.75 93.25 C-48.25668483 89.17478772 -47.0508932 87.77353927 -44 85 C-42.89651208 82.2412802 -42 79.97964402 -42 77 C-39.625 74.375 -39.625 74.375 -37 72 C-36.34 72 -35.68 72 -35 72 C-34.67 69.69 -34.34 67.38 -34 65 C-33.34 65 -32.68 65 -32 65 C-32.20625 64.443125 -32.4125 63.88625 -32.625 63.3125 C-33.10695211 60.340462 -32.26565028 58.68020059 -31 56 C-29.02 56.495 -29.02 56.495 -27 57 C-26.71125 55.865625 -26.4225 54.73125 -26.125 53.5625 C-25.75375 52.386875 -25.3825 51.21125 -25 50 C-24.34 49.67 -23.68 49.34 -23 49 C-23.495 44.545 -23.495 44.545 -24 40 C-23.67 40.66 -23.34 41.32 -23 42 C-22.34 42 -21.68 42 -21 42 C-21 41.34 -21 40.68 -21 40 C-20.01 39.34 -19.02 38.68 -18 38 C-16.80767387 35.94996045 -16.80767387 35.94996045 -16 34 C-15.34 34 -14.68 34 -14 34 C-13.74605469 33.43410156 -13.49210937 32.86820313 -13.23046875 32.28515625 C-12.71419922 31.18494141 -12.71419922 31.18494141 -12.1875 30.0625 C-11.85105469 29.33160156 -11.51460938 28.60070312 -11.16796875 27.84765625 C-10 26 -10 26 -7 25 C-7 22.69 -7 20.38 -7 18 C-5.515 18.495 -5.515 18.495 -4 19 C-3.814375 17.700625 -3.814375 17.700625 -3.625 16.375 C-3 13 -3 13 -2 10.0625 C-0.90707716 6.71542381 -0.41877765 3.48981374 0 0 Z " fill="#BC68F1" transform="translate(418,168)"/>
<path d="M0 0 C1 1 1 1 1.01953125 2.86328125 C0.50691763 8.92759706 -0.91973977 14.18573478 -2.953125 19.91015625 C-4.33258365 23.98161816 -5.33540806 28.10824063 -6.33984375 32.28515625 C-7.13481318 35.55440923 -8.0468225 38.77386078 -9 42 C-9.66 42 -10.32 42 -11 42 C-11 43.98 -11 45.96 -11 48 C-11.66 48 -12.32 48 -13 48 C-13.04898438 48.59167969 -13.09796875 49.18335938 -13.1484375 49.79296875 C-13.56456867 54.19104472 -14.04965595 57.96928897 -16 62 C-16.33 62 -16.66 62 -17 62 C-17.41958212 58.01396989 -16.80879863 55.22972183 -15.25 51.625 C-12.26363664 44.67103959 -10.71367146 37.34691062 -9 30 C-10.485 30.495 -10.485 30.495 -12 31 C-12.495 29.515 -12.495 29.515 -13 28 C-11.35 27.67 -9.7 27.34 -8 27 C-8 25.35 -8 23.7 -8 22 C-7.34 22 -6.68 22 -6 22 C-6 20.02 -6 18.04 -6 16 C-5.34 16 -4.68 16 -4 16 C-3.91051442 11.52572076 -4.14256349 7.39436211 -5 3 C-5.61875 3.28875 -6.2375 3.5775 -6.875 3.875 C-12.03593297 5.73293587 -17.50143614 7 -23 7 C-23.33 7.66 -23.66 8.32 -24 9 C-23.01 9.66 -22.02 10.32 -21 11 C-24.28696233 11.79953138 -25.71023192 12.09658936 -29 11 C-29 10.01 -29 9.02 -29 8 C-29.66386719 8.13277344 -30.32773437 8.26554687 -31.01171875 8.40234375 C-39 10 -39 10 -41.64453125 10.50390625 C-44.13512907 10.98175253 -44.13512907 10.98175253 -47 12 C-48.37433431 12.04278083 -49.75059873 12.04057273 -51.125 12 C-52.40375 12 -53.6825 12 -55 12 C-55.33 12.33 -55.66 12.66 -56 13 C-57.43530239 13.13101137 -58.87358964 13.23007469 -60.3125 13.3125 C-64.59845304 13.71939428 -66.14166198 14.71820449 -69 18 C-70.32 18 -71.64 18 -73 18 C-73 18.66 -73 19.32 -73 20 C-74.32 20 -75.64 20 -77 20 C-77 19.34 -77 18.68 -77 18 C-80.72857126 18.50192305 -84.36469171 19.03058446 -88 20 C-88.804375 20.12375 -89.60875 20.2475 -90.4375 20.375 C-93.55694166 21.13583943 -95.46489985 22.0051671 -98 24 C-98.7619532 27.02126435 -98.7619532 27.02126435 -98.6875 30.625 C-98.72943015 32.07953666 -98.77526558 33.53396402 -98.82421875 34.98828125 C-98.84661621 35.78830566 -98.86901367 36.58833008 -98.89208984 37.41259766 C-99.09279112 42.22488755 -99.57588222 47.01572411 -100 51.8125 C-101.12761475 65.19166451 -101.61288674 78.58164724 -102 92 C-102.66 92 -103.32 92 -104 92 C-104.09483039 84.07639446 -104.07711905 76.22146951 -103.5 68.3125 C-103.0538335 62.00420141 -102.95572436 55.7604026 -103 49.4375 C-103.13696171 25.06052466 -103.13696171 25.06052466 -100 19 C-96.30178209 16.53452139 -92.72598403 15.98827852 -88.4375 15.1875 C-87.56633545 15.01935791 -86.6951709 14.85121582 -85.79760742 14.67797852 C-83.88938807 14.31042878 -81.98058388 13.94590591 -80.07128906 13.58398438 C-76.87644276 12.97650644 -73.68417437 12.35669422 -70.4921875 11.734375 C-60.46075009 9.7838586 -50.43033584 7.8649369 -40.35229492 6.17041016 C-36.28439784 5.46515547 -32.26375812 4.62516859 -28.23828125 3.70703125 C-27.22660889 3.47757813 -26.21493652 3.248125 -25.17260742 3.01171875 C-23.20539429 2.56037705 -21.240475 2.09886055 -19.27856445 1.625 C-12.83455876 0.1441676 -6.61787642 -0.56053887 0 0 Z " fill="#F8E89B" transform="translate(397,52)"/>
<path d="M0 0 C1.91159912 0.33221558 1.91159912 0.33221558 3.86181641 0.67114258 C11.83483094 2.07485651 19.75452953 3.6372834 27.65991211 5.37817383 C32.27979317 6.37893477 36.86477131 7.11822835 41.5625 7.6875 C47.41990139 8.39807 53.12023662 9.47280501 58.875 10.75 C59.66720947 10.92466797 60.45941895 11.09933594 61.27563477 11.27929688 C66.86810455 12.55560455 66.86810455 12.55560455 68 13.6875 C68.84768495 26.57065996 67.34711212 39.71179022 66.5 52.5625 C66.35506039 54.81117163 66.21052592 57.05986942 66.06640625 59.30859375 C65.71560681 64.7685394 65.35981151 70.22814123 65 75.6875 C64.67 75.6875 64.34 75.6875 64 75.6875 C64 59.8475 64 44.0075 64 27.6875 C64.66 27.6875 65.32 27.6875 66 27.6875 C65.505 21.7475 65.505 21.7475 65 15.6875 C59.55761441 13.59427477 54.11658693 12.83967613 48.375 12.0625 C47.43398438 11.9284375 46.49296875 11.794375 45.5234375 11.65625 C41.61662189 11.11240351 37.95577754 10.6875 34 10.6875 C32.34399537 10.2238187 30.68887707 9.75614722 29.04296875 9.2578125 C25.08465381 8.15281445 21.0330349 7.46355369 17 6.6875 C15.47907466 6.37544808 13.95824246 6.0629419 12.4375 5.75 C7.74042581 4.81058516 3.02881313 3.96123293 -1.6875 3.125 C-2.40043213 2.99810791 -3.11336426 2.87121582 -3.84790039 2.74047852 C-5.2302293 2.49748286 -6.61344425 2.25946587 -7.99755859 2.02685547 C-9.96630744 1.69320991 -11.93052144 1.33315153 -13.89453125 0.97265625 C-14.91933594 0.87855469 -15.94414062 0.78445312 -17 0.6875 C-17.66 1.3475 -18.32 2.0075 -19 2.6875 C-21.475 1.6975 -21.475 1.6975 -24 0.6875 C-25.485 3.1625 -25.485 3.1625 -27 5.6875 C-26.05065487 7.35930274 -25.09026687 9.02483936 -24.125 10.6875 C-23.32449219 12.0796875 -23.32449219 12.0796875 -22.5078125 13.5 C-22.01023438 14.221875 -21.51265625 14.94375 -21 15.6875 C-20.34 15.6875 -19.68 15.6875 -19 15.6875 C-19.1546875 16.7703125 -19.1546875 16.7703125 -19.3125 17.875 C-19.27005046 20.92501426 -19.27005046 20.92501426 -16.5625 23.125 C-14 25.6875 -14 25.6875 -13.5625 28.4375 C-12.7306844 33.24354571 -10.13250316 36.9861592 -7 40.6875 C-5.515 41.1825 -5.515 41.1825 -4 41.6875 C-3.9071875 43.1725 -3.9071875 43.1725 -3.8125 44.6875 C-3.24833607 48.60530504 -1.65586069 51.17985686 0.5234375 54.4296875 C2.25349488 57.07511916 3.787357 59.79411248 5.3125 62.5625 C5.82425781 63.48804688 6.33601563 64.41359375 6.86328125 65.3671875 C8 67.6875 8 67.6875 8 69.6875 C9.65 69.6875 11.3 69.6875 13 69.6875 C13 71.0075 13 72.3275 13 73.6875 C13.41853582 76.28242211 14.0530215 77.76924147 15.5 80 C17.30354375 83.23134922 17.64160975 86.03191948 18 89.6875 C14.7627982 86.9127556 13.06635227 84.03484322 11.25390625 80.2109375 C9.68354066 77.0506379 7.94593311 73.99544592 6.1875 70.9375 C5.66808838 70.03318237 5.66808838 70.03318237 5.13818359 69.1105957 C2.90226165 65.22951898 0.64092993 61.36363662 -1.625 57.5 C-4.28259717 52.95694538 -6.83081375 48.36673181 -9.3359375 43.73828125 C-13.85331002 35.45643163 -18.44587895 27.20728711 -23.3125 19.125 C-24.00666016 17.96871094 -24.00666016 17.96871094 -24.71484375 16.7890625 C-25.54105452 15.43799443 -26.38607899 14.09815823 -27.25390625 12.7734375 C-29.88271941 8.61496651 -30.83087962 5.58045779 -30 0.6875 C-24.18800564 -7.32904395 -8.27391604 -1.45826537 0 0 Z " fill="#88CCF6" transform="translate(227,84.3125)"/>
<path d="M0 0 C1.17949219 0.01804688 2.35898437 0.03609375 3.57421875 0.0546875 C4.92966797 0.08949219 4.92966797 0.08949219 6.3125 0.125 C5.71059017 12.0047993 3.9179106 22.82699135 0.9765625 34.33984375 C0.19917638 37.60029259 -0.30934418 40.79722879 -0.6875 44.125 C1.37606895 43.8409949 3.4383285 43.54746648 5.5 43.25 C6.64855469 43.08757812 7.79710937 42.92515625 8.98046875 42.7578125 C12.01039774 42.18237464 14.4794094 41.29614037 17.3125 40.125 C20.5625 39.9375 20.5625 39.9375 23.3125 40.125 C23.6425 40.455 23.9725 40.785 24.3125 41.125 C23.96616682 45.71391466 23.1338431 49.93593743 21.9375 54.375 C20.25335969 60.79271915 19.33043266 67.25863559 18.49072266 73.83105469 C17.81541269 78.80173041 16.7403711 83.33553469 15.03198242 88.05566406 C12.81619206 94.42859894 12.06818028 100.40620763 12.3125 107.125 C13.9625 107.125 15.6125 107.125 17.3125 107.125 C17.59971924 106.57038086 17.88693848 106.01576172 18.18286133 105.44433594 C19.49318143 102.91927016 20.80902909 100.39712506 22.125 97.875 C22.57681641 97.00230469 23.02863281 96.12960937 23.49414062 95.23046875 C23.93564453 94.38613281 24.37714844 93.54179687 24.83203125 92.671875 C25.23526611 91.89682617 25.63850098 91.12177734 26.05395508 90.32324219 C27.32199727 88.10841155 28.77251009 86.15620966 30.3125 84.125 C31.03274654 82.54416476 31.6983307 80.9374896 32.3125 79.3125 C32.6528125 78.43207031 32.993125 77.55164063 33.34375 76.64453125 C33.6634375 75.81308594 33.983125 74.98164063 34.3125 74.125 C40.3125 59.625 40.3125 59.625 43.3125 58.125 C44.07868417 56.24530704 44.07868417 56.24530704 44.6875 54 C45.6654066 50.8617181 46.74867875 48.13332101 48.4375 45.3125 C49.9439746 42.75149318 50.85174306 41.00473088 51.3125 38.125 C51.9725 38.125 52.6325 38.125 53.3125 38.125 C53.41949219 37.39667969 53.52648437 36.66835937 53.63671875 35.91796875 C54.36363742 32.91365171 55.44181487 31.01554305 57.125 28.4375 C59.78893651 24.18030002 61.69241333 19.98488125 63.35546875 15.25390625 C64.36665707 13.00452815 65.47065381 11.73856102 67.3125 10.125 C66.75937265 14.15492782 66.1566938 18.14522924 65.3125 22.125 C64.6525 22.125 63.9925 22.125 63.3125 22.125 C62.9103125 22.929375 62.9103125 22.929375 62.5 23.75 C61.10416667 26.54166667 59.70833333 29.33333333 58.3125 32.125 C57.6525 32.125 56.9925 32.125 56.3125 32.125 C56.415625 33.15625 56.51875 34.1875 56.625 35.25 C56.23255335 40.11633846 54.50844065 41.54859022 51.3125 45.125 C50.02018358 48.16699472 50.02018358 48.16699472 49.3125 51.125 C49.10625 51.90875 48.9 52.6925 48.6875 53.5 C48.501875 54.304375 48.501875 54.304375 48.3125 55.125 C47.6525 55.125 46.9925 55.125 46.3125 55.125 C46.19777344 55.68316406 46.08304687 56.24132812 45.96484375 56.81640625 C45.22328504 59.4407248 44.13125329 61.64318729 42.875 64.0625 C41.5624049 66.59757172 40.32944203 69.08261319 39.26953125 71.734375 C38.20391168 74.3962492 36.81369618 76.79259226 35.37109375 79.265625 C33.54184558 82.47862178 31.94621508 85.80998591 30.3125 89.125 C29.10524876 91.54221541 27.89695866 93.95889029 26.6875 96.375 C26.09108206 97.56767645 25.49472517 98.76038342 24.8984375 99.953125 C24.37507813 100.99984375 23.85171875 102.0465625 23.3125 103.125 C22.95929688 103.87523437 22.60609375 104.62546875 22.2421875 105.3984375 C20.74116745 108.18604616 19.01778641 109.52642167 16.3125 111.125 C13 110.375 13 110.375 10.3125 109.125 C8.58541166 100.4895583 9.57567831 92.43078554 12.61328125 84.20703125 C13.62392749 81.1976768 13.97736253 78.27529218 14.3125 75.125 C14.9725 75.125 15.6325 75.125 16.3125 75.125 C16.10625 74.42375 15.9 73.7225 15.6875 73 C15.22556107 69.45846824 16.1473191 67.49107815 17.3125 64.125 C17.64997113 61.82775675 17.87780764 59.53350381 18.1015625 57.22265625 C18.59050997 52.36034532 19.93647314 47.80349132 21.3125 43.125 C19.51926747 43.40687936 17.72792874 43.7008281 15.9375 44 C14.44089844 44.24363281 14.44089844 44.24363281 12.9140625 44.4921875 C10.1699885 44.9208802 10.1699885 44.9208802 8.3125 47.125 C6.21875 47.390625 6.21875 47.390625 3.8125 47.375 C3.0184375 47.38015625 2.224375 47.3853125 1.40625 47.390625 C-0.6875 47.125 -0.6875 47.125 -2.6875 45.125 C-2.83247985 42.54435871 -2.87427545 40.07556116 -2.8125 37.5 C-2.80347656 36.79359375 -2.79445313 36.0871875 -2.78515625 35.359375 C-2.76157603 33.61443902 -2.72570461 31.86967705 -2.6875 30.125 C-2.0275 29.795 -1.3675 29.465 -0.6875 29.125 C-0.28020772 26.80343403 0.05688677 24.4681213 0.3125 22.125 C0.9725 22.125 1.6325 22.125 2.3125 22.125 C2.28929687 21.44695312 2.26609375 20.76890625 2.2421875 20.0703125 C2.11446203 13.48332764 2.75788762 7.52389559 4.3125 1.125 C3.4875 1.29 2.6625 1.455 1.8125 1.625 C-2.10022317 2.18396045 -5.73933173 2.19307187 -9.6875 2.125 C-6.05554504 -0.29630331 -4.30400652 -0.08522785 0 0 Z " fill="#B44ADE" transform="translate(318.6875,169.875)"/>
<path d="M0 0 C1.17949219 0.01804688 2.35898437 0.03609375 3.57421875 0.0546875 C4.92966797 0.08949219 4.92966797 0.08949219 6.3125 0.125 C5.71059017 12.0047993 3.9179106 22.82699135 0.9765625 34.33984375 C0.19917638 37.60029259 -0.30934418 40.79722879 -0.6875 44.125 C1.37606895 43.8409949 3.4383285 43.54746648 5.5 43.25 C6.64855469 43.08757812 7.79710937 42.92515625 8.98046875 42.7578125 C12.01039774 42.18237464 14.4794094 41.29614037 17.3125 40.125 C20.5625 39.9375 20.5625 39.9375 23.3125 40.125 C23.6425 40.455 23.9725 40.785 24.3125 41.125 C23.96616682 45.71391466 23.1338431 49.93593743 21.9375 54.375 C20.19488135 60.98845028 19.27497141 67.67279587 18.40283203 74.44628906 C18.23243408 75.69877441 18.23243408 75.69877441 18.05859375 76.9765625 C17.91442017 78.10312256 17.91442017 78.10312256 17.76733398 79.25244141 C17.3125 81.125 17.3125 81.125 15.3125 83.125 C15.25798286 81.08363605 15.21947515 79.04184144 15.1875 77 C15.16429687 75.86304688 15.14109375 74.72609375 15.1171875 73.5546875 C15.31717873 70.04284153 16.12819034 67.41675043 17.3125 64.125 C17.71521546 61.78549423 17.71521546 61.78549423 17.875 59.5625 C18.42759931 53.85548296 19.69230909 48.63364908 21.3125 43.125 C19.51926747 43.40687936 17.72792874 43.7008281 15.9375 44 C14.44089844 44.24363281 14.44089844 44.24363281 12.9140625 44.4921875 C10.1699885 44.9208802 10.1699885 44.9208802 8.3125 47.125 C6.21875 47.390625 6.21875 47.390625 3.8125 47.375 C3.0184375 47.38015625 2.224375 47.3853125 1.40625 47.390625 C-0.6875 47.125 -0.6875 47.125 -2.6875 45.125 C-2.83247985 42.54435871 -2.87427545 40.07556116 -2.8125 37.5 C-2.80347656 36.79359375 -2.79445313 36.0871875 -2.78515625 35.359375 C-2.76157603 33.61443902 -2.72570461 31.86967705 -2.6875 30.125 C-2.0275 29.795 -1.3675 29.465 -0.6875 29.125 C-0.28020772 26.80343403 0.05688677 24.4681213 0.3125 22.125 C0.9725 22.125 1.6325 22.125 2.3125 22.125 C2.28929687 21.44695312 2.26609375 20.76890625 2.2421875 20.0703125 C2.11446203 13.48332764 2.75788762 7.52389559 4.3125 1.125 C3.4875 1.29 2.6625 1.455 1.8125 1.625 C-2.10022317 2.18396045 -5.73933173 2.19307187 -9.6875 2.125 C-6.05554504 -0.29630331 -4.30400652 -0.08522785 0 0 Z " fill="#B96FB0" transform="translate(318.6875,169.875)"/>
<path d="M0 0 C1.32 0 2.64 0 4 0 C4.36351562 0.87011719 4.36351562 0.87011719 4.734375 1.7578125 C6.77787698 6.52074404 8.81696843 10.8928625 12 15 C12.99 15.33 13.98 15.66 15 16 C15.061875 16.99 15.12375 17.98 15.1875 19 C15.75166393 22.91780504 17.34413931 25.49235686 19.5234375 28.7421875 C21.25349488 31.38761916 22.787357 34.10661248 24.3125 36.875 C24.82425781 37.80054688 25.33601563 38.72609375 25.86328125 39.6796875 C27 42 27 42 27 44 C28.65 44 30.3 44 32 44 C32 45.32 32 46.64 32 48 C32.41853582 50.59492211 33.0530215 52.08174147 34.5 54.3125 C36.30354375 57.54384922 36.64160975 60.34441948 37 64 C33.7627982 61.2252556 32.06635227 58.34734322 30.25390625 54.5234375 C28.68354066 51.3631379 26.94593311 48.30794592 25.1875 45.25 C24.84122559 44.64712158 24.49495117 44.04424316 24.13818359 43.4230957 C21.90226165 39.54201898 19.64092993 35.67613662 17.375 31.8125 C14.69864465 27.23913432 12.13679643 22.61637876 9.62109375 17.953125 C7.32365915 13.76791883 4.93771831 9.63439868 2.53930664 5.50634766 C0 1.10703144 0 1.10703144 0 0 Z " fill="#87A8F5" transform="translate(208,110)"/>
<path d="M0 0 C-3 2 -3 2 -6.3125 1.875 C-10.86612128 2.02936004 -12.56135604 3.05736017 -16 6 C-16.87731108 9.09026005 -16.87731108 9.09026005 -16.75 12.6875 C-16.78246967 14.13290761 -16.81921708 15.57822306 -16.859375 17.0234375 C-16.87548828 17.81717773 -16.89160156 18.61091797 -16.90820312 19.42871094 C-17.07986166 24.23697594 -17.57330927 29.02141548 -18 33.8125 C-19.12855253 47.19154207 -19.61288872 60.58171607 -20 74 C-20.66 74 -21.32 74 -22 74 C-22.09483039 66.07639446 -22.07711905 58.22146951 -21.5 50.3125 C-20.99070424 43.11162391 -20.96700117 35.97071413 -21.01953125 28.75439453 C-21.05331852 21.12832613 -20.65354332 13.59744113 -20 6 C-19.01 5.67 -18.02 5.34 -17 5 C-16.26676204 2.98491642 -16.26676204 2.98491642 -16 1 C-14.0852312 0.63571223 -12.16807707 0.28394694 -10.25 -0.0625 C-9.18265625 -0.25972656 -8.1153125 -0.45695312 -7.015625 -0.66015625 C-4.25228095 -0.97156937 -2.59053383 -0.8991416 0 0 Z " fill="#ECD36F" transform="translate(315,70)"/>
<path d="M0 0 C1.32 0 2.64 0 4 0 C2.54422667 4.1246911 0.41781866 7.37327201 -2 11 C-2.29519531 11.75152344 -2.59039062 12.50304687 -2.89453125 13.27734375 C-4.48431125 17.19280897 -6.63130763 20.74405444 -8.75073242 24.39306641 C-9.1088501 25.00972168 -9.46696777 25.62637695 -9.8359375 26.26171875 C-10.19655273 26.88095215 -10.55716797 27.50018555 -10.92871094 28.13818359 C-11.9664005 29.9416067 -12.97544682 31.75810153 -13.9765625 33.58203125 C-14.58242188 34.66871094 -15.18828125 35.75539062 -15.8125 36.875 C-16.35519531 37.86242187 -16.89789063 38.84984375 -17.45703125 39.8671875 C-17.96621094 40.57101563 -18.47539062 41.27484375 -19 42 C-19.99 42 -20.98 42 -22 42 C-21.71890887 40.35232753 -21.42481474 38.70686855 -21.125 37.0625 C-20.96257812 36.14597656 -20.80015625 35.22945312 -20.6328125 34.28515625 C-20.42398437 33.53105469 -20.21515625 32.77695313 -20 32 C-19.34 31.67 -18.68 31.34 -18 31 C-17.34 31.33 -16.68 31.66 -16 32 C-15.67 28.7 -15.34 25.4 -15 22 C-13.35 22 -11.7 22 -10 22 C-9.87625 21.443125 -9.7525 20.88625 -9.625 20.3125 C-9 18 -9 18 -8 15.5625 C-7.01632356 13.04182913 -6.45620011 10.6611673 -6 8 C-5.67 8 -5.34 8 -5 8 C-4.67 6.35 -4.34 4.7 -4 3 C-2.68 3 -1.36 3 0 3 C0 2.01 0 1.02 0 0 Z " fill="#A875F1" transform="translate(447,122)"/>
<path d="M0 0 C1.2648918 2.5297836 0.8134306 3.33002452 0.0625 6 C-0.76229016 8.95852749 -0.76229016 8.95852749 -1 12 C-1.66 12 -2.32 12 -3 12 C-3.268125 12.53625 -3.53625 13.0725 -3.8125 13.625 C-5.20833333 16.41666667 -6.60416667 19.20833333 -8 22 C-8.66 22 -9.32 22 -10 22 C-9.896875 23.03125 -9.79375 24.0625 -9.6875 25.125 C-10.07994665 29.99133846 -11.80405935 31.42359022 -15 35 C-16.29231642 38.04199472 -16.29231642 38.04199472 -17 41 C-17.20625 41.78375 -17.4125 42.5675 -17.625 43.375 C-17.74875 43.91125 -17.8725 44.4475 -18 45 C-18.66 45 -19.32 45 -20 45 C-20.10570312 45.54269531 -20.21140625 46.08539063 -20.3203125 46.64453125 C-21.16134384 49.55913984 -22.44086228 52.01543743 -23.875 54.6875 C-24.64457031 56.14736328 -24.64457031 56.14736328 -25.4296875 57.63671875 C-27 60 -27 60 -30 61 C-30.33 61.99 -30.66 62.98 -31 64 C-30.39363716 60.21193549 -29.28838544 57.17104296 -27.5625 53.75 C-27.13066406 52.87859375 -26.69882812 52.0071875 -26.25390625 51.109375 C-25 49 -25 49 -23 48 C-22.23381583 46.12030704 -22.23381583 46.12030704 -21.625 43.875 C-20.6470934 40.7367181 -19.56382125 38.00832101 -17.875 35.1875 C-16.3685254 32.62649318 -15.46075694 30.87973088 -15 28 C-14.34 28 -13.68 28 -13 28 C-12.89300781 27.27167969 -12.78601563 26.54335937 -12.67578125 25.79296875 C-11.94886258 22.78865171 -10.87068513 20.89054305 -9.1875 18.3125 C-6.52937349 14.05439806 -4.58216035 9.83634165 -2.859375 5.12890625 C-2 3 -2 3 0 0 Z " fill="#AF5FD1" transform="translate(385,180)"/>
<path d="M0 0 C0.99 0 1.98 0 3 0 C3.86758477 13.36723199 0.23468715 26.44640968 -4 39 C-4.66 39 -5.32 39 -6 39 C-6 40.98 -6 42.96 -6 45 C-6.66 45 -7.32 45 -8 45 C-8.04898437 45.59167969 -8.09796875 46.18335938 -8.1484375 46.79296875 C-8.56456867 51.19104472 -9.04965595 54.96928897 -11 59 C-11.33 59 -11.66 59 -12 59 C-12.41958212 55.01396989 -11.80879863 52.22972183 -10.25 48.625 C-7.26363664 41.67103959 -5.71367146 34.34691062 -4 27 C-4.99 27.33 -5.98 27.66 -7 28 C-7.33 27.01 -7.66 26.02 -8 25 C-6.35 24.67 -4.7 24.34 -3 24 C-3 22.35 -3 20.7 -3 19 C-2.34 19 -1.68 19 -1 19 C-1 17.02 -1 15.04 -1 13 C-0.34 13 0.32 13 1 13 C1.08948558 8.52572076 0.85743651 4.39436211 0 0 Z " fill="#F9D950" transform="translate(392,55)"/>
<path d="M0 0 C2.97 0.33 5.94 0.66 9 1 C9.31330465 13.99924197 8.35450811 26.91209287 7.5 39.875 C7.35506039 42.12367163 7.21052592 44.37236942 7.06640625 46.62109375 C6.71560681 52.0810394 6.35981151 57.54064123 6 63 C5.67 63 5.34 63 5 63 C5 47.16 5 31.32 5 15 C5.66 15 6.32 15 7 15 C6.67 11.04 6.34 7.08 6 3 C4.02 2.34 2.04 1.68 0 1 C0 0.67 0 0.34 0 0 Z " fill="#889CC9" transform="translate(286,97)"/>
<path d="M0 0 C2.31 0 4.62 0 7 0 C6.05424284 3.31015007 5.05635727 5.91581781 3.1328125 8.7890625 C0.98721801 12.01924322 -0.69270098 15.25903208 -2.375 18.75 C-4.9148824 23.95084262 -7.67118122 28.941807 -10.7109375 33.8671875 C-12.30951296 36.51210326 -13.67771916 39.20851822 -15 42 C-15.33 42 -15.66 42 -16 42 C-16 39.36 -16 36.72 -16 34 C-15.34 34 -14.68 34 -14 34 C-13.74605469 33.43410156 -13.49210937 32.86820313 -13.23046875 32.28515625 C-12.88628906 31.55167969 -12.54210937 30.81820312 -12.1875 30.0625 C-11.85105469 29.33160156 -11.51460938 28.60070312 -11.16796875 27.84765625 C-10 26 -10 26 -7 25 C-7 22.69 -7 20.38 -7 18 C-6.01 18.33 -5.02 18.66 -4 19 C-3.87625 18.13375 -3.7525 17.2675 -3.625 16.375 C-3 13 -3 13 -2 10.0625 C-0.90707716 6.71542381 -0.41877765 3.48981374 0 0 Z " fill="#BD88F0" transform="translate(418,168)"/>
<path d="M0 0 C1.07591401 3.38029701 0.97215966 6.17368132 0.625 9.6875 C0.53476562 10.66074219 0.44453125 11.63398438 0.3515625 12.63671875 C0 15 0 15 -1 16 C-1.23192865 17.51469448 -1.41215238 19.03754562 -1.5625 20.5625 C-1.64628906 21.38878906 -1.73007812 22.21507812 -1.81640625 23.06640625 C-1.87699219 23.70449219 -1.93757813 24.34257812 -2 25 C-1.01 24.67 -0.02 24.34 1 24 C1.99 24.33 2.98 24.66 4 25 C4.70125 24.855625 5.4025 24.71125 6.125 24.5625 C10.09200711 23.78634643 13.9709291 23.92099861 18 24 C18 24.33 18 24.66 18 25 C10.18183678 27.74493505 3.32110535 29.67620721 -5 29 C-5.38615986 23.33632211 -4.25552454 18.55719648 -2.80078125 13.08984375 C-1.67907703 8.76170696 -0.82604903 4.39263719 0 0 Z " fill="#F6B22C" transform="translate(323,185)"/>
<path d="M0 0 C0.33 0.33 0.66 0.66 1 1 C0.86369127 6.56768737 0.05123536 11.80353709 -2 17 C-3.50771907 12.21997213 -2.58205734 7.91515088 -2 3 C-7.94 4.32 -13.88 5.64 -20 7 C-20.33 6.34 -20.66 5.68 -21 5 C-23.01669827 3.86649466 -23.01669827 3.86649466 -25 3 C-16.6823236 0.96004433 -8.60747048 -0.86910382 0 0 Z " fill="#F7E889" transform="translate(397,52)"/>
<path d="M0 0 C0.99 0 1.98 0 3 0 C2.85795259 1.58367747 2.71119847 3.16693318 2.5625 4.75 C2.48128906 5.63171875 2.40007812 6.5134375 2.31640625 7.421875 C2.03761535 9.69350452 1.61209423 11.79851823 1 14 C-0.32 13.34 -1.64 12.68 -3 12 C-3.1546875 13.6396875 -3.1546875 13.6396875 -3.3125 15.3125 C-3.97307727 18.85559629 -4.2027092 19.93243723 -7 22 C-7.08333357 17.1666528 -6.95261487 12.76307437 -6 8 C-8.97 8 -11.94 8 -15 8 C-12 6 -12 6 -8.4375 6.3125 C-5 7 -5 7 -3 8 C-2.87625 7.236875 -2.7525 6.47375 -2.625 5.6875 C-2 3 -2 3 0 0 Z " fill="#FDC01C" transform="translate(331,162)"/>
<path d="M0 0 C-0.99 1.485 -0.99 1.485 -2 3 C-4.475 2.01 -4.475 2.01 -7 1 C-8.485 3.475 -8.485 3.475 -10 6 C-9.05065487 7.67180274 -8.09026687 9.33733936 -7.125 11 C-6.32449219 12.3921875 -6.32449219 12.3921875 -5.5078125 13.8125 C-5.01023438 14.534375 -4.51265625 15.25625 -4 16 C-3.34 16 -2.68 16 -2 16 C-2.1546875 17.0828125 -2.1546875 17.0828125 -2.3125 18.1875 C-1.87550935 22.12041589 0.10082197 23.46321923 3 26 C2.01 26.33 1.02 26.66 0 27 C-5.78867169 22.08839978 -10.81033575 14.98072768 -12.5859375 7.546875 C-12.73485407 4.45399241 -12.32604106 2.44830646 -10.5 -0.0625 C-6.74153926 -1.47192278 -3.92592229 -0.71975242 0 0 Z " fill="#8BCEF3" transform="translate(210,84)"/>
<path d="M0 0 C-0.62390625 0.29648437 -1.2478125 0.59296875 -1.890625 0.8984375 C-4.03797092 2.01982926 -5.38095835 3.21905418 -7 5 C-6.01 5.66 -5.02 6.32 -4 7 C-7.28696233 7.79953138 -8.71023192 8.09658936 -12 7 C-12 6.01 -12 5.02 -12 4 C-12.68707031 4.15597656 -13.37414062 4.31195313 -14.08203125 4.47265625 C-14.98308594 4.66730469 -15.88414062 4.86195312 -16.8125 5.0625 C-17.70582031 5.25972656 -18.59914063 5.45695312 -19.51953125 5.66015625 C-22 6 -22 6 -25 5 C-25 4.34 -25 3.68 -25 3 C-16.51168642 0.43056454 -8.85406634 -0.38558031 0 0 Z " fill="#F7E57F" transform="translate(380,56)"/>
<path d="M0 0 C2.68092691 2.68092691 2.38670257 4.39167363 2.625 8.125 C2.69976562 9.22070312 2.77453125 10.31640625 2.8515625 11.4453125 C2.92503906 12.70988281 2.92503906 12.70988281 3 14 C2.01 14 1.02 14 0 14 C-0.2475 14.94875 -0.495 15.8975 -0.75 16.875 C-2.17423987 20.43559968 -2.71715887 20.51742659 -6 22 C-6.80528889 24.05000871 -6.80528889 24.05000871 -7 26 C-7.33 25.34 -7.66 24.68 -8 24 C-7.26821134 21.92803369 -6.44100997 19.8891448 -5.5625 17.875 C-5.08941406 16.77929688 -4.61632812 15.68359375 -4.12890625 14.5546875 C-3.75636719 13.71164063 -3.38382812 12.86859375 -3 12 C-2.34 12 -1.68 12 -1 12 C-1 10.68 -1 9.36 -1 8 C-0.34 8 0.32 8 1 8 C0.67 6.35 0.34 4.7 0 3 C-5.61 3 -11.22 3 -17 3 C-11.74707099 0.37353549 -5.8860737 -0.51935944 0 0 Z " fill="#AB80BF" transform="translate(413,116)"/>
<path d="M0 0 C0.66 0.99 1.32 1.98 2 3 C2.99 3.33 3.98 3.66 5 4 C3 9 1 14 -1 19 C-1.66 19 -2.32 19 -3 19 C-3.12375 19.5775 -3.2475 20.155 -3.375 20.75 C-4.00648824 23.02335767 -4.88858191 24.9253529 -6 27 C-7.33332095 24.3333581 -6.67102033 22.83319697 -6 20 C-5.34 20 -4.68 20 -4 20 C-3.41747712 16.67129786 -2.92418291 13.35848412 -2.5625 10 C-2.14296345 6.48130634 -1.24766554 3.32710809 0 0 Z " fill="#F8AD1E" transform="translate(363,210)"/>
<path d="M0 0 C0.33 0 0.66 0 1 0 C1 9.57 1 19.14 1 29 C1.99 29 2.98 29 4 29 C4 28.01 4 27.02 4 26 C4.845625 26.165 5.69125 26.33 6.5625 26.5 C10.09138856 27.01329288 13.43932689 27.07121346 17 27 C17 27.33 17 27.66 17 28 C5.15060241 31.54216867 5.15060241 31.54216867 0 31 C-1 30 -1 30 -1.1328125 27.40234375 C-1.11213375 18.2313173 -0.66504481 9.14436615 0 0 Z " fill="#DAB367" transform="translate(292,144)"/>
<path d="M0 0 C0.66 0 1.32 0 2 0 C1.67 1.32 1.34 2.64 1 4 C0.34 4 -0.32 4 -1 4 C-0.855625 4.928125 -0.71125 5.85625 -0.5625 6.8125 C-0.50216535 12.70116162 -4.66130035 17.44516767 -8 22 C-8.66 22.66 -9.32 23.32 -10 24 C-10.99 24 -11.98 24 -13 24 C-13 23.34 -13 22.68 -13 22 C-12.34 22 -11.68 22 -11 22 C-11 19.69 -11 17.38 -11 15 C-9.35 15 -7.7 15 -6 15 C-5.88785156 14.28457031 -5.77570313 13.56914062 -5.66015625 12.83203125 C-4.95543995 9.80884002 -3.86712202 7.43677312 -2.4375 4.6875 C-1.98246094 3.80449219 -1.52742188 2.92148437 -1.05859375 2.01171875 C-0.70925781 1.34785156 -0.35992187 0.68398438 0 0 Z " fill="#BB5CEE" transform="translate(367,265)"/>
<path d="M0 0 C0.66 0.33 1.32 0.66 2 1 C-0.50221242 6.21294255 -3.22096735 11.27866767 -6.0625 16.3125 C-6.4028125 16.92303223 -6.743125 17.53356445 -7.09375 18.16259766 C-8.78769913 21.13771939 -10.39356836 23.75083625 -13 26 C-13 24.68 -13 23.36 -13 22 C-12.34 22 -11.68 22 -11 22 C-10.87625 20.96875 -10.7525 19.9375 -10.625 18.875 C-9.2677574 10.46009591 -6.06163537 5.8451484 0 0 Z " fill="#BB5EF0" transform="translate(379,247)"/>
<path d="M0 0 C0.99 0.33 1.98 0.66 3 1 C3 1.66 3 2.32 3 3 C4.65 3 6.3 3 8 3 C9.0625 5.375 9.0625 5.375 10 8 C9.67 8.66 9.34 9.32 9 10 C8.9603287 11.66619446 8.95615553 13.33391013 9 15 C9.66 15 10.32 15 11 15 C11.12375 15.969375 11.2475 16.93875 11.375 17.9375 C11.58125 18.948125 11.7875 19.95875 12 21 C12.66 21.33 13.32 21.66 14 22 C13.01 22 12.02 22 11 22 C10.62488281 21.31035156 10.24976563 20.62070313 9.86328125 19.91015625 C9.35152344 18.97042969 8.83976562 18.03070313 8.3125 17.0625 C7.76980469 16.06476563 7.22710937 15.06703125 6.66796875 14.0390625 C4.77829525 10.59605083 2.8406443 7.18200093 0.8828125 3.77734375 C0 2 0 2 0 0 Z " fill="#A981F2" transform="translate(278,232)"/>
<path d="M0 0 C-0.99 0 -1.98 0 -3 0 C-3 0.66 -3 1.32 -3 2 C-12.6533309 3.81857774 -22.17286886 5.45089248 -32 6 C-32.33 7.32 -32.66 8.64 -33 10 C-33.66 10 -34.32 10 -35 10 C-34.6875 8.125 -34.6875 8.125 -34 6 C-31.16752102 4.11168068 -29.80204467 3.58978715 -26.578125 2.96484375 C-25.71703125 2.79533203 -24.8559375 2.62582031 -23.96875 2.45117188 C-23.0715625 2.28166016 -22.174375 2.11214844 -21.25 1.9375 C-19.92742187 1.67743164 -19.92742187 1.67743164 -18.578125 1.41210938 C-3.96194569 -1.42630045 -3.96194569 -1.42630045 0 0 Z " fill="#F8E99C" transform="translate(331,65)"/>
<path d="M0 0 C1.17949219 0.01804688 2.35898437 0.03609375 3.57421875 0.0546875 C4.92966797 0.08949219 4.92966797 0.08949219 6.3125 0.125 C5.88191725 8.62334383 5.24532179 16.81990639 3.3125 25.125 C2.97465608 26.7907582 2.64020464 28.45721747 2.3125 30.125 C1.9825 30.125 1.6525 30.125 1.3125 30.125 C2.09154328 10.15689066 2.09154328 10.15689066 4.3125 1.125 C3.4875 1.29 2.6625 1.455 1.8125 1.625 C-2.10022317 2.18396045 -5.73933173 2.19307187 -9.6875 2.125 C-6.05554504 -0.29630331 -4.30400652 -0.08522785 0 0 Z " fill="#AC84B0" transform="translate(318.6875,169.875)"/>
<path d="M0 0 C0.66 0 1.32 0 2 0 C2.61279769 4.05978473 3 7.89957626 3 12 C1.68 12.33 0.36 12.66 -1 13 C-1.04898437 13.59167969 -1.09796875 14.18335938 -1.1484375 14.79296875 C-1.56456867 19.19104472 -2.04965595 22.96928897 -4 27 C-4.33 27 -4.66 27 -5 27 C-5.29854639 20.55139796 -4.25825856 15.18716929 -2.5 9 C-2.26152344 8.12988281 -2.02304687 7.25976562 -1.77734375 6.36328125 C-1.193891 4.23951325 -0.60133866 2.11875921 0 0 Z " fill="#F8AE21" transform="translate(343,212)"/>
<path d="M0 0 C0.33 0 0.66 0 1 0 C1.02703381 1.93742341 1.04641125 3.87495479 1.0625 5.8125 C1.07410156 6.89144531 1.08570313 7.97039062 1.09765625 9.08203125 C1 12 1 12 0 15 C-0.06665376 16.39439664 -0.08538199 17.79169875 -0.0625 19.1875 C-0.041875 20.445625 -0.02125 21.70375 0 23 C2.97 23 5.94 23 9 23 C8.67 23.66 8.34 24.32 8 25 C6.54207116 25.05399736 5.08357288 25.09279177 3.625 25.125 C2.40683594 25.15980469 2.40683594 25.15980469 1.1640625 25.1953125 C-1 25 -1 25 -3 23 C-3.14497985 20.41935871 -3.18677545 17.95056116 -3.125 15.375 C-3.11597656 14.66859375 -3.10695313 13.9621875 -3.09765625 13.234375 C-3.07407603 11.48943902 -3.03820461 9.74467705 -3 8 C-2.34 7.67 -1.68 7.34 -1 7 C-0.59270772 4.67843403 -0.25561323 2.3431213 0 0 Z " fill="#9D67E4" transform="translate(319,192)"/>
<path d="M0 0 C0.33 0 0.66 0 1 0 C1 2.64 1 5.28 1 8 C2.05058594 7.79503906 3.10117187 7.59007813 4.18359375 7.37890625 C11.4432316 5.97969748 18.62790642 4.65822264 26 4 C25.01 4.33 24.02 4.66 23 5 C23 5.66 23 6.32 23 7 C20.94921875 7.22786458 18.8984375 7.45572917 16.84765625 7.68359375 C14.98859771 7.81886614 14.98859771 7.81886614 14 9 C12.14712498 9.07226502 10.29166122 9.0838122 8.4375 9.0625 C7.42558594 9.05347656 6.41367187 9.04445313 5.37109375 9.03515625 C4.19740234 9.01775391 4.19740234 9.01775391 3 9 C2.67 9.66 2.34 10.32 2 11 C-0.97 10.505 -0.97 10.505 -4 10 C-3.67 9.34 -3.34 8.68 -3 8 C-2.34 8 -1.68 8 -1 8 C-1.020625 6.865625 -1.04125 5.73125 -1.0625 4.5625 C-1 1 -1 1 0 0 Z " fill="#EEC34E" transform="translate(379,114)"/>
<path d="M0 0 C0.99 0 1.98 0 3 0 C3.40600406 6.25547004 2.78237977 12.11878595 1.625 18.25 C1.49891357 18.92289063 1.37282715 19.59578125 1.24291992 20.2890625 C0.44630725 24.31237892 -0.62106368 28.13897831 -2 32 C-3.45839897 28.04294544 -2.67906093 24.30168612 -2.0625 20.25 C-1.96259766 19.55261719 -1.86269531 18.85523437 -1.75976562 18.13671875 C-1.51334127 16.42348274 -1.25759045 14.71159275 -1 13 C-0.34 13 0.32 13 1 13 C1.08948558 8.52572076 0.85743651 4.39436211 0 0 Z " fill="#F9DE66" transform="translate(392,55)"/>
<path d="M0 0 C2.31 0 4.62 0 7 0 C5.58399311 6.13602988 1.9336625 10.26698362 -2 15 C-3 13 -3 13 -2.125 10.3125 C-1.75375 9.219375 -1.3825 8.12625 -1 7 C-0.62468554 4.67305036 -0.28082798 2.34023315 0 0 Z " fill="#AB6AF2" transform="translate(418,168)"/>
<path d="M0 0 C-8.80791015 2.40853162 -20.24489693 0.07679189 -29 -2 C-29.33 -2.66 -29.66 -3.32 -30 -4 C-22.35420367 -7.82289816 -7.96293103 -1.86495661 0 0 Z " fill="#92C1F3" transform="translate(294,97)"/>
<path d="M0 0 C0.33 0 0.66 0 1 0 C1.47498697 4.86861646 0.46300841 7.35682125 -2.05859375 11.328125 C-3.17762457 13.10000657 -3.17762457 13.10000657 -3.5 15.8125 C-3.665 16.534375 -3.83 17.25625 -4 18 C-5.9375 19.1875 -5.9375 19.1875 -8 20 C-8.66 20.66 -9.32 21.32 -10 22 C-9.54685159 16.10907072 -6.95033102 11.95724224 -4 7 C-3.22692201 5.64711352 -2.45584499 4.29308009 -1.6875 2.9375 C-1.130625 1.968125 -0.57375 0.99875 0 0 Z " fill="#AA6BCD" transform="translate(396,158)"/>
<path d="M0 0 C1.32 0 2.64 0 4 0 C4.36351562 0.87011719 4.36351562 0.87011719 4.734375 1.7578125 C6.35086038 5.52546689 7.90547316 8.86346123 10.25 12.25 C12.12247469 15.19246022 12.40106605 16.59093854 12 20 C12.66 20 13.32 20 14 20 C13.67 20.99 13.34 21.98 13 23 C9.65652533 18.13086213 6.51004301 13.36236461 4 8 C3.27402617 6.54007461 2.54472663 5.08179933 1.8125 3.625 C1.20833333 2.41666667 0.60416667 1.20833333 0 0 Z " fill="#8EC3F2" transform="translate(208,110)"/>
<path d="M0 0 C0.66 0 1.32 0 2 0 C2 0.66 2 1.32 2 2 C2.66 2 3.32 2 4 2 C4.99 4.64 5.98 7.28 7 10 C7.66 10 8.32 10 9 10 C9.33 11.65 9.66 13.3 10 15 C10.66 15 11.32 15 12 15 C12.33 17.64 12.66 20.28 13 23 C9.09749887 19.82018427 7.3588947 15.98772203 5.23828125 11.54296875 C4.14230439 9.29224025 2.9639784 7.15152013 1.6875 5 C0 2 0 2 0 0 Z " fill="#C273EE" transform="translate(311,290)"/>
<path d="M0 0 C0.33 0 0.66 0 1 0 C1.29327449 6.3713882 0.28085477 11.5892757 -1.5 17.6875 C-3.6470304 24.715882 -3.6470304 24.715882 -4 32 C-2.68 32.66 -1.36 33.32 0 34 C-1.66611905 34.042721 -3.33382885 34.04063832 -5 34 C-6 33 -6 33 -6.1796875 29.43359375 C-6.12364431 25.09604379 -5.27755422 21.2255177 -4.125 17.0625 C-3.75695048 15.66819601 -3.38975772 14.27366557 -3.0234375 12.87890625 C-2.84651367 12.2152002 -2.66958984 11.55149414 -2.48730469 10.86767578 C-1.5483286 7.2688947 -0.77914416 3.63600608 0 0 Z " fill="#E5925F" transform="translate(336,244)"/>
<path d="M0 0 C0.90105469 0.00902344 1.80210937 0.01804688 2.73046875 0.02734375 C3.41753906 0.03894531 4.10460937 0.05054688 4.8125 0.0625 C4.8125 0.3925 4.8125 0.7225 4.8125 1.0625 C4.20921875 1.08828125 3.6059375 1.1140625 2.984375 1.140625 C-2.26564807 1.51320728 -4.62151024 1.96821546 -8.1875 6.0625 C-9.5075 6.0625 -10.8275 6.0625 -12.1875 6.0625 C-12.1875 6.7225 -12.1875 7.3825 -12.1875 8.0625 C-13.5075 8.0625 -14.8275 8.0625 -16.1875 8.0625 C-16.1875 7.4025 -16.1875 6.7425 -16.1875 6.0625 C-17.8375 5.7325 -19.4875 5.4025 -21.1875 5.0625 C-21.1875 4.7325 -21.1875 4.4025 -21.1875 4.0625 C-14.7525 3.5675 -14.7525 3.5675 -8.1875 3.0625 C-8.1875 2.4025 -8.1875 1.7425 -8.1875 1.0625 C-5.17259443 0.05753148 -3.14568308 -0.04085303 0 0 Z " fill="#FCE056" transform="translate(336.1875,63.9375)"/>
<path d="M0 0 C5.75 -0.125 5.75 -0.125 8 1 C7.70703125 3.01822917 7.4140625 5.03645833 7.12109375 7.0546875 C6.8315703 9.08140667 6.8315703 9.08140667 8 11 C7.01 12.485 7.01 12.485 6 14 C3 7.375 3 7.375 3 4 C2.34 4 1.68 4 1 4 C0.67 2.68 0.34 1.36 0 0 Z " fill="#B23FF8" transform="translate(312,288)"/>
<path d="M0 0 C1.32 0 2.64 0 4 0 C2.54422667 4.1246911 0.41781866 7.37327201 -2 11 C-2.37125 11.928125 -2.7425 12.85625 -3.125 13.8125 C-4 16 -4 16 -6 17 C-5.34 12.38 -4.68 7.76 -4 3 C-2.68 3 -1.36 3 0 3 C0 2.01 0 1.02 0 0 Z " fill="#A97FF4" transform="translate(447,122)"/>
<path d="M0 0 C0 7.863403 -3.5566648 14.71259288 -8 21 C-9.45047396 18.09905209 -8.45356803 16.44027404 -7.5625 13.375 C-7.13130859 11.87066406 -7.13130859 11.87066406 -6.69140625 10.3359375 C-6.46324219 9.56507813 -6.23507812 8.79421875 -6 8 C-5.34 8 -4.68 8 -4 8 C-3.896875 7.236875 -3.79375 6.47375 -3.6875 5.6875 C-2.95635961 2.82940576 -2.23048087 1.84257115 0 0 Z " fill="#F3A436" transform="translate(355,237)"/>
<path d="M0 0 C0.33 0.66 0.66 1.32 1 2 C0.28735352 3.78759766 0.28735352 3.78759766 -0.87109375 5.9140625 C-1.28037109 6.67460937 -1.68964844 7.43515625 -2.11132812 8.21875 C-2.54896484 9.0128125 -2.98660156 9.806875 -3.4375 10.625 C-3.87126953 11.42679687 -4.30503906 12.22859375 -4.75195312 13.0546875 C-5.82756988 15.04044151 -6.91047213 17.0218546 -8 19 C-9.76374463 15.47251074 -8.08101456 11.64528167 -7 8 C-5.5 4.9375 -5.5 4.9375 -4 3 C-3.34 3 -2.68 3 -2 3 C-2 2.34 -2 1.68 -2 1 C-1.34 0.67 -0.68 0.34 0 0 Z " fill="#F2A037" transform="translate(345,258)"/>
<path d="M0 0 C2.4375 0.375 2.4375 0.375 5 1 C5.33 1.66 5.66 2.32 6 3 C5.67 3.66 5.34 4.32 5 5 C6.65 5.33 8.3 5.66 10 6 C9.34 8.31 8.68 10.62 8 13 C4.48901975 8.98745115 2.23462006 4.79016959 0 0 Z " fill="#9898F5" transform="translate(254,191)"/>
<path d="M0 0 C3.375 0.6875 3.375 0.6875 4.375 1.6875 C4.52635944 3.4747057 4.59675778 5.26911876 4.625 7.0625 C4.66367187 8.52816406 4.66367187 8.52816406 4.703125 10.0234375 C4.375 12.6875 4.375 12.6875 2.859375 14.5390625 C2.12460937 15.10753906 2.12460937 15.10753906 1.375 15.6875 C1.29166643 10.8541528 1.42238513 6.45057437 2.375 1.6875 C-0.595 1.6875 -3.565 1.6875 -6.625 1.6875 C-3.625 -0.3125 -3.625 -0.3125 0 0 Z " fill="#E3AD58" transform="translate(322.625,168.3125)"/>
<path d="M0 0 C0.99 0 1.98 0 3 0 C3.061875 0.99 3.12375 1.98 3.1875 3 C3.72958404 7.11149899 5.61227215 9.81388295 8.0390625 13.10546875 C9 15 9 15 8.6484375 17.23828125 C8.43445313 17.81964844 8.22046875 18.40101563 8 19 C2.11816193 11.12253829 2.11816193 11.12253829 1.625 6.4375 C1.74875 5.633125 1.8725 4.82875 2 4 C1.34 4 0.68 4 0 4 C0 2.68 0 1.36 0 0 Z " fill="#7BB3F2" transform="translate(220,126)"/>
<path d="M0 0 C0 0.33 0 0.66 0 1 C-1.12019531 0.97679688 -2.24039063 0.95359375 -3.39453125 0.9296875 C-4.86718084 0.91092763 -6.33983763 0.89272766 -7.8125 0.875 C-8.91948242 0.84986328 -8.91948242 0.84986328 -10.04882812 0.82421875 C-13.91246426 0.78925372 -15.70903668 0.80602445 -19 3 C-19.73343428 6.06556598 -19.73343428 6.06556598 -20 9 C-20.33 9 -20.66 9 -21 9 C-21.38310817 5.01567504 -21.58098109 2.80135323 -19.1875 -0.5 C-13.10662694 -3.36158732 -6.37053817 -1.32719545 0 0 Z " fill="#9AD3F4" transform="translate(218,83)"/>
<path d="M0 0 C1.11667279 3.35001838 0.76286236 5.59254812 0 9 C1.79323253 8.71812064 3.58457126 8.4241719 5.375 8.125 C6.37273437 7.96257812 7.37046875 7.80015625 8.3984375 7.6328125 C11.1425115 7.2041198 11.1425115 7.2041198 13 5 C15.1640625 4.8046875 15.1640625 4.8046875 17.625 4.875 C18.85089844 4.90207031 18.85089844 4.90207031 20.1015625 4.9296875 C21.04128906 4.96449219 21.04128906 4.96449219 22 5 C22 5.33 22 5.66 22 6 C14.18183678 8.74493505 7.32110535 10.67620721 -1 10 C-1.125 3.375 -1.125 3.375 0 0 Z " fill="#E4A558" transform="translate(319,204)"/>
<path d="M0 0 C-0.33 0.99 -0.66 1.98 -1 3 C-0.01 3.66 0.98 4.32 2 5 C-1.28696233 5.79953138 -2.71023192 6.09658936 -6 5 C-6 4.01 -6 3.02 -6 2 C-8.64 2.33 -11.28 2.66 -14 3 C-13.67 2.34 -13.34 1.68 -13 1 C-8.63585999 0.14428627 -4.43923267 -0.10827397 0 0 Z " fill="#FDE155" transform="translate(374,58)"/>
<path d="M0 0 C0.66 0.33 1.32 0.66 2 1 C1.34 2.98 0.68 4.96 0 7 C0.66 7.33 1.32 7.66 2 8 C1.72285156 8.51949219 1.44570313 9.03898438 1.16015625 9.57421875 C-0.83829243 13.42176585 -2.22007476 16.71041115 -3 21 C-3.66 21.33 -4.32 21.66 -5 22 C-5.25235894 18.46697478 -5.19328523 16.37816676 -3.5625 13.1875 C-1.80854445 9.60943067 -1.48707652 6.78058768 -1.2109375 2.85546875 C-1 1 -1 1 0 0 Z " fill="#FAAB1A" transform="translate(342,224)"/>
<path d="M0 0 C3.37161357 1.12387119 3.72035171 1.70399403 5.5625 4.5625 C6.74992017 6.46890121 6.74992017 6.46890121 8 8 C8.66 8 9.32 8 10 8 C9.67 10.31 9.34 12.62 9 15 C4.95808535 10.50898372 2.56325559 5.41015011 0 0 Z " fill="#9DA9F3" transform="translate(245,175)"/>
<path d="M0 0 C1.203125 1.609375 1.203125 1.609375 2 4 C0.734375 7.015625 0.734375 7.015625 -1.25 10.25 C-1.89453125 11.32765625 -2.5390625 12.4053125 -3.203125 13.515625 C-3.79609375 14.33546875 -4.3890625 15.1553125 -5 16 C-5.66 16 -6.32 16 -7 16 C-6.67 14.02 -6.34 12.04 -6 10 C-5.34 10 -4.68 10 -4 10 C-4 8.68 -4 7.36 -4 6 C-3.34 6 -2.68 6 -2 6 C-1.34 4.02 -0.68 2.04 0 0 Z " fill="#AB74C3" transform="translate(404,142)"/>
<path d="M0 0 C-5.67331458 3.0548617 -10.95244493 4.26145915 -17.375 4.625 C-19.24285156 4.73714844 -19.24285156 4.73714844 -21.1484375 4.8515625 C-22.55996094 4.92503906 -22.55996094 4.92503906 -24 5 C-24 4.34 -24 3.68 -24 3 C-20.93852743 2.49357075 -17.87567701 1.99600678 -14.8125 1.5 C-13.94818359 1.35691406 -13.08386719 1.21382813 -12.19335938 1.06640625 C-8.09473423 0.40685738 -4.16773976 -0.20709266 0 0 Z " fill="#AFACEB" transform="translate(410,91)"/>
<path d="M0 0 C7.53216715 0.44238385 14.6802723 1.13905228 22 3 C17.70716997 5.36845795 14.82791702 5.04167877 10.125 4.0625 C8.86042969 3.80146484 8.86042969 3.80146484 7.5703125 3.53515625 C6.72210938 3.35855469 5.87390625 3.18195313 5 3 C3.33360018 2.66533522 1.66701048 2.33160961 0 2 C0 1.34 0 0.68 0 0 Z " fill="#6EB6F1" transform="translate(244,89)"/>
<path d="M0 0 C2 2 2 2 2.1953125 4.1640625 C2.17210937 4.97617187 2.14890625 5.78828125 2.125 6.625 C2.10695313 7.44226563 2.08890625 8.25953125 2.0703125 9.1015625 C2.03550781 10.04128906 2.03550781 10.04128906 2 11 C-1 10 -1 10 -2.16796875 7.93359375 C-2.50441406 7.10988281 -2.84085937 6.28617187 -3.1875 5.4375 C-3.53167969 4.61121094 -3.87585938 3.78492188 -4.23046875 2.93359375 C-4.48441406 2.29550781 -4.73835938 1.65742188 -5 1 C-3.68 1.33 -2.36 1.66 -1 2 C-0.67 1.34 -0.34 0.68 0 0 Z " fill="#B768F0" transform="translate(310,279)"/>
<path d="M0 0 C1.65 0 3.3 0 5 0 C4.39285714 5.46428571 4.39285714 5.46428571 2.625 7.875 C1 9 1 9 -2 9 C-2 8.34 -2 7.68 -2 7 C-1.34 7 -0.68 7 0 7 C0 4.69 0 2.38 0 0 Z " fill="#B340F6" transform="translate(356,280)"/>
<path d="M0 0 C0.33 0 0.66 0 1 0 C1 2.31 1 4.62 1 7 C-0.32 7.33 -1.64 7.66 -3 8 C-3.33 9.98 -3.66 11.96 -4 14 C-6.09749995 11.64031256 -6.96905704 10.45383006 -7.1875 7.25 C-7.125625 6.5075 -7.06375 5.765 -7 5 C-6.67 5.66 -6.34 6.32 -6 7 C-5.34 7 -4.68 7 -4 7 C-4 6.34 -4 5.68 -4 5 C-3.01 4.34 -2.02 3.68 -1 3 C-0.67 2.01 -0.34 1.02 0 0 Z " fill="#A94EF7" transform="translate(401,203)"/>
<path d="M0 0 C3.875 2.625 3.875 2.625 5 6 C5 6.66 5 7.32 5 8 C6.62553283 9.70680947 8.29115995 11.37660195 10 13 C9.01 13.33 8.02 13.66 7 14 C2.24387473 10.39190497 1.39195405 5.52563577 0 0 Z " fill="#6ABFF2" transform="translate(203,97)"/>
<path d="M0 0 C0.66 0 1.32 0 2 0 C1.51172287 7.47834967 0.66594452 14.68925318 -1 22 C-1.33 22 -1.66 22 -2 22 C-2.29294756 4.58589512 -2.29294756 4.58589512 0 0 Z " fill="#B352D3" transform="translate(333,245)"/>
<path d="M0 0 C0.99 0.33 1.98 0.66 3 1 C1.1627685 5.04190931 -0.57392878 8.12652091 -4 11 C-4.66 11 -5.32 11 -6 11 C-5.62671065 5.64951939 -4.0042343 3.49087093 0 0 Z " fill="#B047F2" transform="translate(381,240)"/>
<path d="M0 0 C0 3.18111969 -0.59460353 4.75579038 -1.875 7.625 C-2.22304688 8.42164063 -2.57109375 9.21828125 -2.9296875 10.0390625 C-4 12 -4 12 -6 13 C-6.66 11.68 -7.32 10.36 -8 9 C-7.38125 8.79375 -6.7625 8.5875 -6.125 8.375 C-3.16160261 6.45750757 -2.98262803 4.29882268 -2 1 C-1.34 0.67 -0.68 0.34 0 0 Z " fill="#F8B62A" transform="translate(388,171)"/>
<path d="M0 0 C0.99 0.33 1.98 0.66 3 1 C1.02 4.63 -0.96 8.26 -3 12 C-4 10 -4 10 -4 7 C-4.66 6.34 -5.32 5.68 -6 5 C-5.34 5 -4.68 5 -4 5 C-4 4.34 -4 3.68 -4 3 C-3.01 2.67 -2.02 2.34 -1 2 C-0.67 1.34 -0.34 0.68 0 0 Z " fill="#A688F2" transform="translate(464,93)"/>
<path d="M0 0 C0.66 0 1.32 0 2 0 C0.42986223 5.96652354 -2.75029782 10.82909025 -6 16 C-6.33 14.68 -6.66 13.36 -7 12 C-6.34 12 -5.68 12 -5 12 C-4.896875 10.88625 -4.79375 9.7725 -4.6875 8.625 C-4.460625 7.42875 -4.23375 6.2325 -4 5 C-3.01 4.34 -2.02 3.68 -1 3 C-0.67 2.01 -0.34 1.02 0 0 Z " fill="#C477ED" transform="translate(373,257)"/>
<path d="M0 0 C0 0.66 0 1.32 0 2 C-6.46008837 3.95021536 -12.2718373 4.22262303 -19 4 C-19 3.67 -19 3.34 -19 3 C-16.77228658 2.49356447 -14.54275924 1.9951038 -12.3125 1.5 C-10.45044922 1.08234375 -10.45044922 1.08234375 -8.55078125 0.65625 C-5.57601782 0.10645874 -3.00631398 -0.13795705 0 0 Z " fill="#AAA0F3" transform="translate(429,87)"/>
<path d="M0 0 C7.09727428 -0.10808032 13.96094956 0.06145994 21 1 C21 1.33 21 1.66 21 2 C19.35 2 17.7 2 16 2 C15.67 2.66 15.34 3.32 15 4 C14.41992188 3.86722656 13.83984375 3.73445313 13.2421875 3.59765625 C8.84229018 2.60295999 4.46105842 1.68631668 0 1 C0 0.67 0 0.34 0 0 Z " fill="#78C5F4" transform="translate(211,84)"/>
<path d="M0 0 C1.03158708 3.29642489 1.00598994 6.01016793 0.6875 9.4375 C0.60886719 10.36433594 0.53023438 11.29117188 0.44921875 12.24609375 C-0.01114679 15.06833467 -0.84138115 17.39428984 -2 20 C-2.33 20 -2.66 20 -3 20 C-3.40850553 12.91923749 -1.90420731 6.80074041 0 0 Z " fill="#E3975B" transform="translate(341,219)"/>
<path d="M0 0 C0.598125 0.20625 1.19625 0.4125 1.8125 0.625 C1.9375 7.25 1.9375 7.25 0.8125 10.625 C0.1525 10.625 -0.5075 10.625 -1.1875 10.625 C-2.2201802 7.83676345 -2.23259293 6.7572726 -1.25 3.875 C-0.899375 3.1325 -0.54875 2.39 -0.1875 1.625 C-1.8375 1.625 -3.4875 1.625 -5.1875 1.625 C-2.1875 -0.375 -2.1875 -0.375 0 0 Z " fill="#A862D5" transform="translate(340.1875,211.375)"/>
<path d="M0 0 C2.631724 2.45627573 4.81527263 4.55352037 6 8 C5.71101782 9.34364362 5.38228783 10.67986936 5 12 C3.96674014 10.57140593 2.94872366 9.13177617 1.9375 7.6875 C1.36902344 6.88699219 0.80054688 6.08648437 0.21484375 5.26171875 C-0.18605469 4.51535156 -0.58695313 3.76898438 -1 3 C-0.67 2.01 -0.34 1.02 0 0 Z " fill="#92B7F4" transform="translate(229,144)"/>
<path d="M0 0 C-0.99 0 -1.98 0 -3 0 C-3 0.66 -3 1.32 -3 2 C-6.01490557 3.00496852 -8.04181692 3.10335303 -11.1875 3.0625 C-12.53908203 3.04896484 -12.53908203 3.04896484 -13.91796875 3.03515625 C-14.60503906 3.02355469 -15.29210937 3.01195313 -16 3 C-15.360625 2.690625 -14.72125 2.38125 -14.0625 2.0625 C-12.06389179 1.1654837 -12.06389179 1.1654837 -11 0 C-3.7826685 -1.36176066 -3.7826685 -1.36176066 0 0 Z " fill="#F6E782" transform="translate(331,65)"/>
<path d="M0 0 C0.33 0 0.66 0 1 0 C1.50130606 5.26371362 0.31168629 7.9090934 -3 12 C-3.66 12 -4.32 12 -5 12 C-5.33 12.99 -5.66 13.98 -6 15 C-5.39644592 11.14974121 -4.23227397 8.13898841 -2.4375 4.6875 C-1.98246094 3.80449219 -1.52742188 2.92148438 -1.05859375 2.01171875 C-0.53458984 1.01591797 -0.53458984 1.01591797 0 0 Z " fill="#BA5BC1" transform="translate(360,229)"/>
<path d="M0 0 C0.33 1.32 0.66 2.64 1 4 C0.34 4 -0.32 4 -1 4 C-1.04898437 4.59167969 -1.09796875 5.18335937 -1.1484375 5.79296875 C-1.56456867 10.19104472 -2.04965595 13.96928897 -4 18 C-4.33 18 -4.66 18 -5 18 C-5.69405925 11.40643709 -2.88820164 5.77640327 0 0 Z " fill="#D7B872" transform="translate(385,96)"/>
<path d="M0 0 C0.99 0 1.98 0 3 0 C3.33 1.98 3.66 3.96 4 6 C4.66 6 5.32 6 6 6 C6.33 6.99 6.66 7.98 7 9 C7.66 9.66 8.32 10.32 9 11 C8.01 12.485 8.01 12.485 7 14 C6.01780373 12.23084525 5.03934641 10.45961431 4.0625 8.6875 C3.51722656 7.70136719 2.97195313 6.71523437 2.41015625 5.69921875 C1 3 1 3 0 0 Z " fill="#AB9BEF" transform="translate(264,208)"/>
<path d="M0 0 C0.66 0.33 1.32 0.66 2 1 C-0.31 5.29 -2.62 9.58 -5 14 C-6.04449911 10.86650268 -5.93423645 10.01031744 -5 7 C-4.34 7 -3.68 7 -3 7 C-2.87625 6.030625 -2.7525 5.06125 -2.625 4.0625 C-2.41875 3.051875 -2.2125 2.04125 -2 1 C-1.34 0.67 -0.68 0.34 0 0 Z " fill="#C28AF0" transform="translate(400,210)"/>
<path d="M0 0 C0.66 0.33 1.32 0.66 2 1 C1.2169216 3.14898232 0.42328757 5.29412095 -0.375 7.4375 C-0.81585938 8.63246094 -1.25671875 9.82742187 -1.7109375 11.05859375 C-3 14 -3 14 -5 15 C-4.67 12.69 -4.34 10.38 -4 8 C-3.34 8 -2.68 8 -2 8 C-2 6.02 -2 4.04 -2 2 C-1.34 2 -0.68 2 0 2 C0 1.34 0 0.68 0 0 Z " fill="#E3AF66" transform="translate(407,131)"/>
<path d="M0 0 C1.5625 1 1.5625 1 3 3 C2.96726452 5.76614782 2.49404328 8.26030547 2 11 C0 8 0 8 0 5 C-0.66 5 -1.32 5 -2 5 C-2 3.68 -2 2.36 -2 1 C-1.34 0.67 -0.68 0.34 0 0 Z " fill="#B839FC" transform="translate(325,304)"/>
<path d="M0 0 C0.66 0 1.32 0 2 0 C2 0.66 2 1.32 2 2 C2.66 2 3.32 2 4 2 C4.69685498 3.6210103 5.38222861 5.24696066 6.0625 6.875 C6.63677734 8.23238281 6.63677734 8.23238281 7.22265625 9.6171875 C8 12 8 12 7 14 C3.98320986 9.46330032 1.46032495 5.31027254 0 0 Z " fill="#C889EE" transform="translate(311,290)"/>
<path d="M0 0 C0.33 1.32 0.66 2.64 1 4 C0.01 4.33 -0.98 4.66 -2 5 C-2.61067144 6.85744207 -2.61067144 6.85744207 -3 9 C-3.63654342 10.3479743 -4.29605388 11.68596724 -5 13 C-6.33332095 10.3333581 -5.67102033 8.83319697 -5 6 C-4.34 6 -3.68 6 -3 6 C-2.87625 5.38125 -2.7525 4.7625 -2.625 4.125 C-2 2 -2 2 0 0 Z " fill="#E1935F" transform="translate(362,224)"/>
<path d="M0 0 C1.5 1.375 1.5 1.375 3 3 C3 3.66 3 4.32 3 5 C3.99 5 4.98 5 6 5 C5.67 6.98 5.34 8.96 5 11 C3 9.25 3 9.25 1 7 C1 5.68 1 4.36 1 3 C0.34 3 -0.32 3 -1 3 C-0.67 2.01 -0.34 1.02 0 0 Z " fill="#AF96F5" transform="translate(273,221)"/>
<path d="M0 0 C2 3.75 2 3.75 2 6 C2.99 6.33 3.98 6.66 5 7 C4.67 7.66 4.34 8.32 4 9 C2.35 8.67 0.7 8.34 -1 8 C-0.67 5.36 -0.34 2.72 0 0 Z " fill="#F8A927" transform="translate(332,268)"/>
<path d="M0 0 C0 0.66 0 1.32 0 2 C-3.14930893 3.04976964 -5.38814456 3.10131595 -8.6875 3.0625 C-9.68136719 3.05347656 -10.67523438 3.04445313 -11.69921875 3.03515625 C-12.83810547 3.01775391 -12.83810547 3.01775391 -14 3 C-9.31017775 0.56089583 -5.28875777 -0.15110736 0 0 Z " fill="#AA9BEC" transform="translate(463,81)"/>
<path d="M0 0 C-0.99 1.485 -0.99 1.485 -2 3 C-4.475 2.01 -4.475 2.01 -7 1 C-8.32 2.32 -9.64 3.64 -11 5 C-10.625 2.5625 -10.625 2.5625 -10 0 C-6.7169902 -1.6415049 -3.57454967 -0.51888624 0 0 Z " fill="#56BBF9" transform="translate(210,84)"/>
<path d="M0 0 C-3.63195496 2.42130331 -5.38349348 2.21022785 -9.6875 2.125 C-10.86699219 2.10695313 -12.04648437 2.08890625 -13.26171875 2.0703125 C-14.16535156 2.04710938 -15.06898438 2.02390625 -16 2 C-13.04655319 0.03103546 -11.94214163 -0.33984715 -8.5625 -0.6875 C-7.41974609 -0.81705078 -7.41974609 -0.81705078 -6.25390625 -0.94921875 C-3.96788208 -1.00072363 -2.17903015 -0.66016176 0 0 Z " fill="#F9E159" transform="translate(315,70)"/>
<path d="M0 0 C0.99 0.33 1.98 0.66 3 1 C3.042721 2.66611905 3.04063832 4.33382885 3 6 C2 7 2 7 -1.0625 7.0625 C-2.031875 7.041875 -3.00125 7.02125 -4 7 C-4.33 6.34 -4.66 5.68 -5 5 C-3.35 5 -1.7 5 0 5 C0 3.35 0 1.7 0 0 Z " fill="#B23FF3" transform="translate(336,315)"/>
<path d="M0 0 C1.32 0 2.64 0 4 0 C4.33 2.97 4.66 5.94 5 9 C0.57142857 3.85714286 0.57142857 3.85714286 0 0 Z " fill="#B98CF3" transform="translate(293,259)"/>
<path d="M0 0 C0.65234375 1.734375 0.65234375 1.734375 1 4 C0.00390625 6.140625 0.00390625 6.140625 -1.4375 8.25 C-1.91058594 8.95640625 -2.38367188 9.6628125 -2.87109375 10.390625 C-3.24363281 10.92171875 -3.61617188 11.4528125 -4 12 C-5.24546405 9.50907189 -4.7767578 8.58919267 -4 6 C-3.34 6 -2.68 6 -2 6 C-1.34 4.02 -0.68 2.04 0 0 Z " fill="#D47982" transform="translate(351,246)"/>
<path d="M0 0 C0.99 0.33 1.98 0.66 3 1 C2.01 2.98 1.02 4.96 0 7 C-0.99 7 -1.98 7 -3 7 C-2.25 2.25 -2.25 2.25 0 0 Z " fill="#B380F1" transform="translate(428,157)"/>
<path d="M0 0 C0.66 0 1.32 0 2 0 C1.32902328 4.19360449 -0.8558394 7.40334352 -3 11 C-3.93065133 8.39417629 -4.14917407 7.35801776 -3.0625 4.75 C-2.5365625 3.88375 -2.5365625 3.88375 -2 3 C-1.34 3 -0.68 3 0 3 C0 2.01 0 1.02 0 0 Z " fill="#B18DEF" transform="translate(455,110)"/>
<path d="M0 0 C0 3.19610552 -0.54671542 4.41717626 -2 7.1875 C-2.37125 7.90292969 -2.7425 8.61835938 -3.125 9.35546875 C-3.41375 9.89816406 -3.7025 10.44085938 -4 11 C-5.48262169 8.03475663 -4.83538959 6.14877613 -4 3 C-1.9375 1.125 -1.9375 1.125 0 0 Z " fill="#E99259" transform="translate(341,266)"/>
<path d="M0 0 C1.98 0.66 3.96 1.32 6 2 C5.34 3.65 4.68 5.3 4 7 C2 6 2 6 0.875 2.9375 C0.58625 1.968125 0.2975 0.99875 0 0 Z " fill="#9B5DF6" transform="translate(289,248)"/>
<path d="M0 0 C0.33 0.66 0.66 1.32 1 2 C0.67 2.99 0.34 3.98 0 5 C-0.66 5 -1.32 5 -2 5 C-2.33 6.65 -2.66 8.3 -3 10 C-3.33 10 -3.66 10 -4 10 C-4.25 7.25 -4.25 7.25 -4 4 C-2 1.625 -2 1.625 0 0 Z " fill="#EDA546" transform="translate(372,203)"/>
<path d="M0 0 C1.13732426 3.40401948 0.83989957 5.77456664 0.0625 9.25 C-0.13214844 10.14203125 -0.32679688 11.0340625 -0.52734375 11.953125 C-0.68332031 12.62859375 -0.83929688 13.3040625 -1 14 C-1.33 14 -1.66 14 -2 14 C-2.05389087 12.04196493 -2.09274217 10.08351091 -2.125 8.125 C-2.14820313 7.03445312 -2.17140625 5.94390625 -2.1953125 4.8203125 C-2 2 -2 2 0 0 Z " fill="#B27BB0" transform="translate(319,200)"/>
<path d="M0 0 C2.625 -0.1875 2.625 -0.1875 5 0 C3 2 3 2 0 4 C-0.57748803 5.96361864 -0.57748803 5.96361864 -0.6875 8.125 C-0.790625 9.40375 -0.89375 10.6825 -1 12 C-1.33 12 -1.66 12 -2 12 C-2.05422947 10.5629191 -2.09289723 9.12524538 -2.125 7.6875 C-2.14820313 6.88699219 -2.17140625 6.08648437 -2.1953125 5.26171875 C-2 3 -2 3 0 0 Z " fill="#FADE45" transform="translate(299,72)"/>
<path d="M0 0 C1.2684375 0.2475 1.2684375 0.2475 2.5625 0.5 C6.09138856 1.01329288 9.43932689 1.07121346 13 1 C13 1.33 13 1.66 13 2 C8.59085217 3.10228696 4.51617599 3.07654536 0 3 C0 2.01 0 1.02 0 0 Z " fill="#F3BD3E" transform="translate(296,170)"/>
<path d="M0 0 C0.99 0.33 1.98 0.66 3 1 C3.33 3.64 3.66 6.28 4 9 C0.06153846 5.67692308 0.06153846 5.67692308 -0.25 2.25 C-0.1675 1.5075 -0.085 0.765 0 0 Z " fill="#9AB1F4" transform="translate(241,165)"/>
<path d="M0 0 C1.32 0 2.64 0 4 0 C4.66 2.31 5.32 4.62 6 7 C5.01 7 4.02 7 3 7 C2.01 4.69 1.02 2.38 0 0 Z " fill="#8BCDF7" transform="translate(208,110)"/>
<path d="M0 0 C0 0.99 0 1.98 0 3 C-3.3 3 -6.6 3 -10 3 C-4 0 -4 0 0 0 Z " fill="#A189BB" transform="translate(308,172)"/>
<path d="M0 0 C0.66 0.33 1.32 0.66 2 1 C1.38245741 2.31602523 0.75571258 3.62773556 0.125 4.9375 C-0.22304688 5.66839844 -0.57109375 6.39929688 -0.9296875 7.15234375 C-2 9 -2 9 -4 10 C-3.71872579 8.51882199 -3.42466268 7.04006751 -3.125 5.5625 C-2.96257812 4.73878906 -2.80015625 3.91507813 -2.6328125 3.06640625 C-2.42398437 2.38449219 -2.21515625 1.70257813 -2 1 C-1.34 0.67 -0.68 0.34 0 0 Z " fill="#BD9CF1" transform="translate(445,129)"/>
<path d="M0 0 C0.66 1.32 1.32 2.64 2 4 C0.02 6.97 0.02 6.97 -2 10 C-3 8 -3 8 -2.44140625 6.0546875 C-2.15136719 5.33539063 -1.86132812 4.61609375 -1.5625 3.875 C-1.27503906 3.15054688 -0.98757813 2.42609375 -0.69140625 1.6796875 C-0.46324219 1.12539062 -0.23507812 0.57109375 0 0 Z " fill="#9F68E1" transform="translate(404,142)"/>
<path d="M0 0 C3.875 2.625 3.875 2.625 5 6 C5 6.99 5 7.98 5 9 C4.34 9 3.68 9 3 9 C2.01 6.03 1.02 3.06 0 0 Z " fill="#5DBCF5" transform="translate(203,97)"/>
<path d="M0 0 C0.66 0 1.32 0 2 0 C1.67 2.31 1.34 4.62 1 7 C0.01 7 -0.98 7 -2 7 C-1.34 4.69 -0.68 2.38 0 0 Z " fill="#A855F3" transform="translate(393,218)"/>
<path d="M0 0 C1.21816406 0.03480469 1.21816406 0.03480469 2.4609375 0.0703125 C3.68683594 0.09738281 3.68683594 0.09738281 4.9375 0.125 C5.87722656 0.15980469 5.87722656 0.15980469 6.8359375 0.1953125 C6.8359375 0.5253125 6.8359375 0.8553125 6.8359375 1.1953125 C-0.59263393 3.62388393 -0.59263393 3.62388393 -4.1640625 2.1953125 C-2.1640625 0.1953125 -2.1640625 0.1953125 0 0 Z " fill="#EFAC42" transform="translate(334.1640625,208.8046875)"/>
<path d="M0 0 C0.33 0 0.66 0 1 0 C2.33500455 5.34001821 1.512545 8.83955235 0 14 C-0.33 14 -0.66 14 -1 14 C-1.18451025 4.58997722 -1.18451025 4.58997722 0 0 Z " fill="#F9BB1B" transform="translate(324,184)"/>
<path d="M0 0 C-1.1858237 3.37503669 -2.27573689 5.64722731 -5 8 C-4.74438677 5.6568787 -4.40729228 3.32156597 -4 1 C-2 0 -2 0 0 0 Z " fill="#C09AF4" transform="translate(438,145)"/>
<path d="M0 0 C1.1875 1.625 1.1875 1.625 2 4 C0.625 7.25 0.625 7.25 -1 10 C-2.46726798 6.18510326 -1.43336419 3.70988378 0 0 Z " fill="#9862F6" transform="translate(441,130)"/>
<path d="M0 0 C0.66 0 1.32 0 2 0 C1.88590407 1.45922693 1.75834456 2.91740598 1.625 4.375 C1.55539062 5.18710938 1.48578125 5.99921875 1.4140625 6.8359375 C1 9 1 9 -1 11 C-1.02688151 9.35425434 -1.04634123 7.70838587 -1.0625 6.0625 C-1.07410156 5.14597656 -1.08570313 4.22945313 -1.09765625 3.28515625 C-1 1 -1 1 0 0 Z " fill="#FBD830" transform="translate(386,82)"/>
<path d="M0 0 C0.99 0 1.98 0 3 0 C2.25 1.9375 2.25 1.9375 1 4 C-1.125 4.75 -1.125 4.75 -3 5 C-3 4.34 -3 3.68 -3 3 C-2.34 3 -1.68 3 -1 3 C-0.67 2.01 -0.34 1.02 0 0 Z " fill="#B94CED" transform="translate(357,284)"/>
<path d="M0 0 C2.88437779 1.29299694 4.87219421 2.65941363 7 5 C6.01 5.66 5.02 6.32 4 7 C4 6.01 4 5.02 4 4 C3.01 4 2.02 4 1 4 C0.67 2.68 0.34 1.36 0 0 Z " fill="#A259F2" transform="translate(297,264)"/>
<path d="M0 0 C0.33 0 0.66 0 1 0 C1.3125 2.25 1.3125 2.25 1 5 C-1.5 7.3125 -1.5 7.3125 -4 9 C-2.94124926 5.59687262 -1.99097846 2.98646769 0 0 Z " fill="#BD52C8" transform="translate(344,262)"/>
<path d="M0 0 C0.66 0.33 1.32 0.66 2 1 C1.60196439 3.88575819 1.20990931 4.82189513 -1.0625 6.75 C-1.701875 7.1625 -2.34125 7.575 -3 8 C-2.25 2.25 -2.25 2.25 0 0 Z " fill="#F3A635" transform="translate(363,219)"/>
<path d="M0 0 C0.99 0 1.98 0 3 0 C3.79953138 3.28696233 4.09658936 4.71023192 3 8 C2.01 7.67 1.02 7.34 0 7 C0.2784375 6.1028125 0.2784375 6.1028125 0.5625 5.1875 C1.22093687 2.83591238 1.22093687 2.83591238 0 0 Z " fill="#A453F4" transform="translate(408,185)"/>
<path d="M0 0 C0 3.86695678 -1.41909971 6.5088452 -3 10 C-4 8 -4 8 -3.1875 4.4375 C-2 1 -2 1 0 0 Z " fill="#ECAF4D" transform="translate(388,171)"/>
<path d="M0 0 C0.99 0.33 1.98 0.66 3 1 C2.67 2.32 2.34 3.64 2 5 C1.34 4.67 0.68 4.34 0 4 C-0.33 4.99 -0.66 5.98 -1 7 C-1.04254356 5.00045254 -1.04080783 2.99958364 -1 1 C-0.67 0.67 -0.34 0.34 0 0 Z " fill="#9C5BF2" transform="translate(428,153)"/>
<path d="M0 0 C-2.91708924 1.98362069 -4.12380904 1.9876191 -7.75 1.625 C-8.8225 1.41875 -9.895 1.2125 -11 1 C-11 0.67 -11 0.34 -11 0 C-3.57142857 -1.28571429 -3.57142857 -1.28571429 0 0 Z " fill="#FBE15D" transform="translate(354,62)"/>
</svg>
