<?xml version="1.0" encoding="UTF-8"?>
<svg version="1.1" xmlns="http://www.w3.org/2000/svg" width="600" height="600">
<path d="M0 0 C198 0 396 0 600 0 C600 198 600 396 600 600 C402 600 204 600 0 600 C0 402 0 204 0 0 Z " fill="#FEFEFE" transform="translate(0,0)"/>
<path d="M0 0 C3.54851807 0.76433865 7.11888973 1.3583441 10.70068359 1.94067383 C11.42411453 2.05852737 12.14754547 2.17638092 12.89289856 2.29780579 C14.41527874 2.54503397 15.93774715 2.79171941 17.46029663 3.03790283 C30.02958021 5.07437683 42.53552531 7.2686679 55.00537109 9.85400391 C62.08609787 11.30557628 69.18247023 12.50819861 76.32568359 13.60864258 C84.18304563 14.82317039 91.97750778 16.18519713 99.76318359 17.79614258 C113.25896828 20.58699062 126.82373912 22.99098711 140.38818359 25.42114258 C141.54204559 25.62790619 142.69590759 25.8346698 143.88473511 26.04769897 C150.53113895 27.2379329 157.17810165 28.42500653 163.82568359 29.60864258 C164.12077813 47.21553272 163.32298176 64.66096962 162.15034485 82.22462845 C161.91644899 85.75710253 161.69194827 89.29017078 161.46728516 92.82324219 C161.39923833 93.89262386 161.39923833 93.89262386 161.32981682 94.9836092 C161.23784264 96.42904001 161.14589259 97.87447236 161.05396652 99.31990623 C160.91564898 101.48954708 160.77638291 103.6591252 160.63687134 105.82868958 C159.79401741 118.95680635 159.01560388 132.08821588 158.27139282 145.22232056 C158.14192784 147.50377504 158.0113907 149.78516896 157.87973022 152.0664978 C157.69790591 155.21713624 157.51910279 158.36793071 157.34130859 161.51879883 C157.2883815 162.43043793 157.23545441 163.34207703 157.18092346 164.28134155 C157.04554178 166.72340052 156.92789065 169.16498538 156.82568359 171.60864258 C156.79212769 172.36619843 156.75857178 173.12375427 156.72399902 173.90426636 C156.62522748 177.72319771 156.64972428 179.34470361 158.82568359 182.60864258 C166.35195669 183.51107341 173.45179271 181.20957297 180.70068359 179.35864258 C181.99806665 179.03571576 183.29575874 178.71402809 184.59375 178.39355469 C187.15875103 177.76016385 189.72290792 177.12373259 192.28662109 176.48510742 C196.91553426 175.33873613 201.55128522 174.23116116 206.20068359 173.17114258 C206.88759277 173.00775391 207.57450195 172.84436523 208.28222656 172.67602539 C212.53009451 171.71686386 216.4759572 171.34113173 220.82568359 171.60864258 C223.26318359 173.17114258 223.26318359 173.17114258 224.82568359 175.60864258 C225.47808069 180.08222264 224.62280677 183.63055822 223.48071289 187.97607422 C221.73061871 194.85194113 220.29916403 201.77362502 218.90771484 208.72973633 C218.64306859 210.04584407 218.3783111 211.36192944 218.1134491 212.67799377 C217.56446204 215.40961212 217.01770144 218.14166466 216.47241211 220.87402344 C215.77494247 224.3673145 215.07039995 227.85913839 214.36406422 231.35064602 C213.81769577 234.05662677 213.27574635 236.76347853 212.73505211 239.47059822 C212.35234233 241.38164547 211.96537292 243.29183808 211.57832336 245.20201111 C211.34775742 246.36414627 211.11719147 247.52628143 210.87963867 248.72363281 C210.67550858 249.74222885 210.47137848 250.76082489 210.26106262 251.81028748 C209.63886479 255.8094017 209.54046579 258.75298917 210.82568359 262.60864258 C219.36844316 263.2793936 226.48779773 260.80623437 234.51318359 258.10864258 C237.07635538 257.25414578 239.64293433 256.41309978 242.21240234 255.57739258 C243.33864014 255.2003418 244.46487793 254.82329102 245.62524414 254.43481445 C248.87286893 253.596462 251.48882394 253.33938246 254.82568359 253.60864258 C257.20068359 255.17114258 257.20068359 255.17114258 258.82568359 257.60864258 C259.15293884 262.77839646 258.40095529 267.49382368 257.25146484 272.50708008 C257.08575485 273.25913727 256.92004486 274.01119446 256.74931335 274.78604126 C256.21915891 277.18683337 255.6792688 279.58529274 255.13818359 281.98364258 C254.44306039 285.09480279 253.75230785 288.20691305 253.06396484 291.31958008 C252.88468948 292.12919189 252.70541412 292.93880371 252.52070618 293.77294922 C250.84391251 301.40616051 249.31204378 309.06611199 247.79263306 316.73196411 C246.20755262 324.7243788 244.57919546 332.70711122 242.93115234 340.68676758 C242.44600918 343.04351431 241.9609831 345.40028514 241.47607422 347.75708008 C240.73674888 351.34971975 239.99588614 354.94201152 239.25073242 358.53344727 C238.51469908 362.08364217 237.78485753 365.63506232 237.05615234 369.18676758 C236.71876289 370.80219452 236.71876289 370.80219452 236.3745575 372.45025635 C236.06842278 373.95033234 236.06842278 373.95033234 235.75610352 375.48071289 C235.48560432 376.78990692 235.48560432 376.78990692 235.2096405 378.12554932 C234.42811387 382.97287758 234.42811387 382.97287758 235.88818359 387.48364258 C237.94773042 388.89632438 237.94773042 388.89632438 241.26318359 388.60864258 C245.65512901 387.3758158 246.28328963 386.339614 248.82568359 382.60864258 C250.47149489 379.52569767 251.92352493 376.36075422 253.38427734 373.18676758 C258.39439742 362.51656414 263.5918484 351.94969369 268.86083984 341.40551758 C269.26411877 340.5981868 269.66739769 339.79085602 270.08289719 338.95906067 C272.16729695 334.78730669 274.25366731 330.61654369 276.34155273 326.4465332 C278.46731468 322.20072182 280.58945853 317.95311399 282.71054935 313.7049675 C284.37965836 310.36308927 286.05071735 307.02218889 287.72231865 303.6815567 C288.50452302 302.11780136 289.28616418 300.55376413 290.06715584 298.98940277 C294.13935314 290.83531682 298.27489202 282.72291369 302.5456543 274.67089844 C308.65280475 263.13960369 314.46392695 251.4613556 320.2880578 239.7852881 C321.86030353 236.63441211 323.4349171 233.48471972 325.00924683 230.33488464 C327.98302352 224.38425235 330.95476726 218.43260735 333.92572963 212.48056954 C337.28192384 205.75699981 340.64038667 199.03456422 343.99905229 192.3122288 C348.69007271 182.92313454 353.38026703 173.53362855 358.06870747 164.1432457 C359.69726428 160.8815057 361.32607366 157.61989191 362.95491028 154.35829163 C364.69520731 150.87337031 366.43454053 147.38797314 368.17240906 143.90184021 C371.75117626 136.72662131 375.36552371 129.57097219 379.02674866 122.43736267 C381.19123865 118.21479008 383.34067464 113.98468198 385.48678684 109.75274563 C387.10777857 106.55815653 388.73556611 103.36738089 390.37768555 100.18359375 C391.99131125 97.05427238 393.58707095 93.91642347 395.17097282 90.7719593 C396.06010357 89.01817249 396.96743417 87.27365042 397.87513733 85.52940369 C401.20362997 79.27676075 401.20362997 79.27676075 401.80981445 72.39794922 C401.1426128 69.47766124 401.1426128 69.47766124 398.82568359 68.60864258 C392.30541914 67.9332367 386.61699118 69.03488483 380.35693359 70.75317383 C375.25460982 71.98924563 370.09809589 72.70683812 364.90844727 73.47631836 C360.10295595 74.20440857 355.42143221 75.117339 350.70068359 76.29614258 C345.5374155 77.54085899 341.12894037 78.12186098 335.82568359 77.60864258 C334.08349609 76.52270508 334.08349609 76.52270508 332.82568359 74.60864258 C331.99601487 68.22849009 334.11252655 62.68993238 336.07568359 56.67114258 C338.69606499 48.39559409 341.0446383 40.14664374 343.00146484 31.69067383 C343.73442903 28.94987411 344.26999012 26.95593196 345.82568359 24.60864258 C347.97633362 23.77058411 347.97633362 23.77058411 350.69116211 23.28759766 C351.71587112 23.09639343 352.74058014 22.90518921 353.79634094 22.70819092 C354.92106308 22.51678528 356.04578522 22.32537964 357.20458984 22.12817383 C358.37898117 21.9139679 359.5533725 21.69976196 360.76335144 21.47906494 C363.96851916 20.89767748 367.17596727 20.33179989 370.38505554 19.77254105 C373.73442235 19.18497883 377.0801818 18.57758769 380.42626953 17.97167969 C385.89846811 16.98283364 391.37242162 16.00435532 396.84765625 15.0324707 C404.1832831 13.72910321 411.5116219 12.38806533 418.83740234 11.03051758 C419.92771255 10.82863327 421.01802277 10.62674896 422.14137268 10.41874695 C424.26768026 10.02491265 426.39396764 9.63096927 428.52023315 9.23690796 C441.93917087 6.75217762 455.36500685 4.31746662 468.81390381 1.99977112 C474.3694194 1.04172246 479.91652802 0.04770113 485.45835876 -0.98683167 C491.71070088 -2.05522473 497.59455509 -2.44820776 503.38818359 0.29614258 C506.97649186 3.70043504 508.69801631 5.87689759 509.06787109 10.89379883 C508.80442414 14.93473516 507.9516829 17.16924389 506.07568359 20.73364258 C505.76622803 21.32653076 505.45677246 21.91941895 505.13793945 22.53027344 C501.8674184 28.71018735 498.3557736 34.76145037 494.86157227 40.81665039 C490.43985208 48.48627838 486.15053593 56.2248917 481.88818359 63.98364258 C476.57860728 73.64390182 471.21284928 83.26898348 465.76611328 92.8527832 C461.32059797 100.69200983 456.97605007 108.5846025 452.63818359 116.48364258 C447.91330177 125.08692177 443.15401284 133.66017479 438.09448242 142.07299805 C433.19842238 150.22895498 428.79362683 158.6641079 424.28735352 167.0390625 C419.16671732 176.5420619 413.94571553 185.97299221 408.55541992 195.32543945 C404.24262915 202.82886884 400.05660316 210.399517 395.88818359 217.98364258 C390.9818011 226.90959636 386.04096394 235.81270849 381.01318359 244.67114258 C369.65084706 264.46259144 369.65084706 264.46259144 359.33740234 284.80786133 C358.01720794 287.25380289 356.59994517 289.46070543 355.03662109 291.75317383 C351.5864853 296.85395036 348.66697156 302.18324261 345.76318359 307.60864258 C344.75178247 309.48381393 343.74006718 311.35881587 342.72802734 313.23364258 C342.2372168 314.14460693 341.74640625 315.05557129 341.24072266 315.99414062 C336.44724042 324.85083511 331.44560966 333.5919426 326.46630859 342.3449707 C323.79843079 347.05098306 321.242381 351.7684016 318.82568359 356.60864258 C317.38311712 359.13058391 315.88324645 361.61756511 314.38818359 364.10864258 C308.72397032 373.63448088 303.45399257 383.36509476 298.18286133 393.11206055 C296.09127383 396.95961834 293.95994128 400.78463979 291.82568359 404.60864258 C291.00386031 406.08508893 290.18224623 407.56165175 289.36083984 409.03833008 C288.95671875 409.76479736 288.55259766 410.49126465 288.13623047 411.23974609 C287.724375 411.98023193 287.31251953 412.72071777 286.88818359 413.48364258 C286.44925781 414.27246826 286.01033203 415.06129395 285.55810547 415.87402344 C283.28757632 419.95938284 281.03861569 424.05420622 278.82568359 428.17114258 C275.93505682 433.50455254 272.82094301 438.69845948 269.71728516 443.90942383 C266.66238194 449.07961261 263.83403827 454.33793144 261.07568359 459.67114258 C252.46424312 476.16430353 252.46424312 476.16430353 244.82568359 478.60864258 C238.34740763 479.53411057 238.34740763 479.53411057 235.08666992 477.55102539 C230.3494196 473.52536146 227.41403355 469.22646062 224.45068359 463.79614258 C223.74262573 462.5377356 223.74262573 462.5377356 223.02026367 461.25390625 C219.72054 455.3524453 216.57093491 449.37378121 213.44897461 443.37695312 C207.10425182 431.29712307 200.0001448 419.61440985 193.02099609 407.89379883 C189.03570551 401.19026154 185.17263843 394.46695924 181.57568359 387.54614258 C177.42148298 379.55607448 172.89971703 371.80392241 168.33496094 364.04272461 C164.03440305 356.7171688 159.83640229 349.34092318 155.70068359 341.92114258 C150.02358901 331.73841738 144.27409035 321.60069319 138.47412109 311.48754883 C136.64960549 308.30113177 134.83100511 305.11138313 133.01318359 301.92114258 C125.32005443 288.42355343 117.56650491 274.96497792 109.71630859 261.55786133 C107.39413845 257.58854893 105.09709242 253.60722168 102.82568359 249.60864258 C102.4023877 248.86380615 101.9790918 248.11896973 101.54296875 247.3515625 C100.03089881 244.68846366 98.52158105 242.02382325 97.01318359 239.35864258 C96.45348877 238.37009277 95.89379395 237.38154297 95.31713867 236.36303711 C92.1589815 230.77395576 89.02330733 225.17330642 85.91943359 219.55395508 C85.59316483 218.96388672 85.26689606 218.37381836 84.93074036 217.76586914 C83.3509014 214.90804322 81.77437486 212.04848429 80.20336914 209.18579102 C76.51664053 202.50813461 72.65398256 195.98317149 68.60986328 189.51855469 C66.42828996 185.96051249 64.43762838 182.32106843 62.46630859 178.64379883 C60.39781348 174.81708287 58.27132533 171.0246041 56.13818359 167.23364258 C55.75734619 166.55519287 55.37650879 165.87674316 54.98413086 165.17773438 C52.98233644 161.62197919 50.93785573 158.1004416 48.82568359 154.60864258 C47.48763313 152.27784499 46.15420859 149.94484125 44.82568359 147.60864258 C43.8214554 145.85026636 42.81637446 144.09238741 41.81005859 142.33520508 C40.89062101 140.72254075 39.98270461 139.10332297 39.07568359 137.48364258 C36.43107248 132.8371346 33.56258593 128.32426569 30.72802734 123.79223633 C28.93250346 120.78740683 27.36353487 117.75120823 25.82568359 114.60864258 C21.75828242 106.98362118 17.55016688 99.45143377 13.07568359 92.05786133 C9.89100583 86.75504513 6.84879997 81.37970213 3.82568359 75.98364258 C-0.81550016 67.73534211 -5.52168229 59.52866015 -10.29931641 51.35864258 C-10.87907227 50.36678955 -11.45882812 49.37493652 -12.05615234 48.35302734 C-14.31136467 44.4971473 -16.56827905 40.64227096 -18.82763672 36.78881836 C-20.36298672 34.16807029 -21.89406506 31.54487001 -23.42431641 28.92114258 C-23.87822754 28.14931641 -24.33213867 27.37749023 -24.79980469 26.58227539 C-28.40753483 20.38605806 -31.32437921 15.03309866 -30.17431641 7.60864258 C-28.15966264 3.3375766 -25.94997792 0.71971633 -21.42041016 -0.92651367 C-14.19761489 -2.42131826 -7.1042634 -1.67488573 0 0 Z " fill="#8B72FD" transform="translate(60.17431640625,91.391357421875)"/>
<path d="M0 0 C2 2 2 2 2.4375 5.1875 C2.32575145 10.76476867 0.18392485 15.84857951 -1.7109375 21.0234375 C-2.72962279 23.94205466 -3.3976334 26.81338085 -3.96484375 29.8515625 C-4.94847536 35.06560167 -6.50277117 39.9757809 -8.1875 45 C-11.2954885 54.49453586 -13.96182984 64.0654402 -16.5078125 73.72412109 C-18.10076494 79.74003932 -19.77343219 85.70342279 -21.6875 91.625 C-23.55778241 97.43754435 -25.12232756 103.25999773 -26.54272461 109.19360352 C-27.59767555 113.55331115 -28.85971693 117.79896527 -30.25 122.0625 C-31.68253212 126.60825152 -32.63248717 130.25634622 -32 135 C-30.00740048 137.43004039 -30.00740048 137.43004039 -26.08203125 137.2734375 C-20.44853305 137.14507076 -15.15162129 135.91803979 -9.6875 134.625 C-7.64762656 134.16059777 -5.60726509 133.69833371 -3.56640625 133.23828125 C-2.60105957 133.01994629 -1.63571289 132.80161133 -0.64111328 132.57666016 C3.40918432 131.69231897 7.48084268 131.02404121 11.578125 130.40234375 C13.96705338 130.00547339 16.27649636 129.46212591 18.625 128.875 C24.36155835 127.57931105 30.43820126 126.51058213 35.6875 129.5625 C37.5581972 133.03665194 36.77261143 135.17885283 36 139 C34.79466248 142.01194763 34.79466248 142.01194763 33.25952148 145.04858398 C32.68479599 146.19765732 32.1100705 147.34673065 31.51792908 148.53062439 C30.88584661 149.76921421 30.25356281 151.0077013 29.62109375 152.24609375 C28.96819888 153.54253017 28.31620225 154.83941929 27.66505432 156.13673401 C25.9491138 159.54958245 24.22128499 162.95627206 22.49078369 166.36175537 C20.75961389 169.77343491 19.03934203 173.1905955 17.31835938 176.60742188 C15.06657463 181.07598779 12.81121203 185.54269232 10.54885769 190.0059166 C6.75812345 197.4853897 3.0005647 204.9811567 -0.74408531 212.48379326 C-2.17052966 215.34165368 -3.59754447 218.19922887 -5.02461243 221.05677795 C-6.76390494 224.53955272 -8.5031738 228.02233927 -10.24226475 231.50521469 C-15.62332377 242.28177127 -21.00647689 253.05728105 -26.39031792 263.83244801 C-29.99323628 271.04343484 -33.5953951 278.25479924 -37.19580078 285.46704102 C-40.36381148 291.81311347 -43.53328767 298.15845159 -46.70443451 304.50295752 C-48.37235308 307.84008063 -50.03960419 311.17753285 -51.70507431 314.51587868 C-57.8558164 326.84369743 -64.02341736 339.15618897 -70.48397827 351.32544804 C-74.62872189 359.14584127 -78.58582611 367.05701562 -82.52807236 374.98097992 C-83.84695156 377.63182241 -85.16855129 380.28129433 -86.49075317 382.93048096 C-89.28780629 388.53583999 -92.08163855 394.14280057 -94.875 399.75 C-98.13810681 406.29993718 -101.40258337 412.84918478 -104.67041397 419.39676666 C-105.9660057 421.99438144 -107.25916671 424.59319636 -108.55221558 427.19207764 C-109.34833109 428.78794167 -110.14455919 430.38374954 -110.94091797 431.97949219 C-111.2942067 432.69123596 -111.64749542 433.40297974 -112.01148987 434.1362915 C-118.88190096 447.87855504 -118.88190096 447.87855504 -123 450 C-126.20764684 450.5613382 -127.5525557 450.2590467 -130.375 448.625 C-134.77618039 441.51540091 -129.48660715 428.25233718 -127.79196167 420.43710327 C-126.86761439 416.1738839 -125.96061011 411.90696169 -125.05078125 407.640625 C-124.87076065 406.79900314 -124.69074005 405.95738129 -124.50526428 405.09025574 C-123.09103419 398.46724671 -121.74355958 391.83270871 -120.4375 385.1875 C-118.23654109 374.02684355 -115.88027038 362.90112446 -113.49780273 351.77807617 C-112.65783925 347.85359375 -111.8266846 343.92730398 -111 340 C-110.85634003 339.31980804 -110.71268005 338.63961609 -110.56466675 337.93881226 C-110.13821211 335.90945892 -109.71851787 333.87882012 -109.30078125 331.84765625 C-109.05497314 330.66179932 -108.80916504 329.47594238 -108.5559082 328.25415039 C-107.84148612 324.07209856 -107.77743406 320.22875295 -108 316 C-116.67463348 314.11955113 -123.40974707 316.61053513 -131.625 319.4375 C-134.17575174 320.30338957 -136.73067782 321.15256837 -139.2890625 321.99609375 C-140.97056396 322.57121704 -140.97056396 322.57121704 -142.68603516 323.15795898 C-147.24333065 324.31591627 -151.28706294 324.94211538 -155.5 322.625 C-159.66102074 315.3432137 -154.66754588 302.64515291 -153.09375 294.875 C-152.80577416 293.43683512 -152.51814185 291.99860141 -152.23083496 290.56030273 C-151.6319951 287.56774596 -151.02991544 284.57586634 -150.42529297 281.58447266 C-149.64994861 277.74770122 -148.88151424 273.9095854 -148.11528778 270.07098389 C-147.52389026 267.11093295 -146.92958083 264.15147288 -146.33430481 261.19219971 C-146.04968511 259.77613224 -145.7658167 258.35991356 -145.48271179 256.94354248 C-145.08834578 254.97350451 -144.68978443 253.00430775 -144.29101562 251.03515625 C-144.06530884 249.9150415 -143.83960205 248.79492676 -143.60705566 247.64086914 C-143 245 -143 245 -142 243 C-141.59119434 238.35718285 -141.59119434 238.35718285 -143.0625 234.0625 C-148.05700781 231.32357636 -154.41814423 233.34186605 -159.6640625 234.64453125 C-160.37799164 234.81498459 -161.09192078 234.98543793 -161.82748413 235.16105652 C-164.09517546 235.70415569 -166.36007098 236.25800626 -168.625 236.8125 C-170.12091586 237.17326445 -171.61700862 237.53329624 -173.11328125 237.89257812 C-176.03288776 238.59438927 -178.95196533 239.29833152 -181.87060547 240.00415039 C-185.6772937 240.92310361 -189.48509537 241.83671402 -193.296875 242.734375 C-194.29299805 242.96995117 -195.28912109 243.20552734 -196.31542969 243.44824219 C-200.10628916 244.22737482 -203.1492115 244.49917629 -207 244 C-208.98875923 241.96725611 -209.91569931 240.65796782 -210.27952576 237.81829834 C-210.23425247 237.019422 -210.18897919 236.22054565 -210.14233398 235.39746094 C-210.09762466 234.46766418 -210.05291534 233.53786743 -210.0068512 232.57989502 C-209.90871376 231.04761261 -209.90871376 231.04761261 -209.80859375 229.484375 C-209.75158798 228.39404968 -209.69458221 227.30372437 -209.635849 226.18035889 C-209.50731187 223.76088817 -209.37135468 221.34180376 -209.22918701 218.9230957 C-208.99061965 214.83943247 -208.77413192 210.75506863 -208.56298828 206.66992188 C-208.12756689 198.31117818 -207.66266852 189.95420649 -207.19366455 181.59729004 C-207.0194919 178.4803371 -206.848203 175.36322827 -206.67682838 172.24612045 C-205.78835376 156.1130821 -204.82145054 139.99134193 -203.6787262 123.87402344 C-203.03917897 114.78622299 -202.52814185 105.69844881 -202.10943604 96.59805298 C-201.91460167 92.4176986 -201.70138236 88.23824954 -201.4921875 84.05859375 C-201.20320086 78.25944406 -200.92994946 72.45997348 -200.67681885 66.65914917 C-200.53946437 63.59756126 -200.38691589 60.53686215 -200.23046875 57.47619629 C-200.16087764 56.04853149 -200.09790909 54.62052647 -200.04199219 53.19226074 C-199.96441382 51.2276821 -199.86169944 49.26414447 -199.7578125 47.30078125 C-199.7077002 46.19903564 -199.65758789 45.09729004 -199.60595703 43.9621582 C-198.85096215 40.27144391 -197.71899139 38.59391434 -195 36 C-192.31054688 34.96313477 -192.31054688 34.96313477 -189.21875 34.37890625 C-188.06503906 34.14961426 -186.91132813 33.92032227 -185.72265625 33.68408203 C-184.49417969 33.45833496 -183.26570313 33.23258789 -182 33 C-179.46867266 32.48866397 -176.93742434 31.97693663 -174.40625 31.46484375 C-172.43444685 31.07958384 -170.46178204 30.69908295 -168.48876953 30.32006836 C-166.50091297 29.93767562 -164.51410992 29.5501229 -162.52734375 29.16210938 C-155.32605987 27.76600228 -148.12159983 26.50724519 -140.86035156 25.46240234 C-137.95200961 24.99224191 -135.11455866 24.37322746 -132.25 23.6875 C-125.75951116 22.13388359 -119.23215596 20.80550723 -112.6875 19.5 C-111.68041992 19.29850342 -110.67333984 19.09700684 -109.63574219 18.8894043 C-103.94744806 17.75945688 -98.25286661 16.67143375 -92.55078125 15.61328125 C-83.47658862 13.92518583 -74.43188436 12.0942734 -65.38458252 10.26849365 C-57.51572333 8.68359975 -49.64292084 7.11833192 -41.77038574 5.55181885 C-39.15034808 5.02994706 -36.53071832 4.50606933 -33.91113281 3.98193359 C-30.16439872 3.23373532 -26.41548479 2.49770499 -22.66430664 1.77212524 C-20.6776967 1.38526191 -18.69329864 0.98709413 -16.70898438 0.58862305 C-5.54704255 -1.54692172 -5.54704255 -1.54692172 0 0 Z " fill="#FEC923" transform="translate(426,31)"/>
<path d="M0 0 C2 2 2 2 2.1953125 3.9453125 C2.13020833 5.96354167 2.06510417 7.98177083 2 10 C1.67 9.34 1.34 8.68 1 8 C-12.22667179 9.8481388 -25.44601082 11.71034057 -38.625 13.875 C-55.30555921 16.60318705 -72.05204425 18.89665433 -88.78686523 21.26293945 C-89.64013397 21.38359772 -90.49340271 21.50425598 -91.37252808 21.62857056 C-93.15695004 21.88082325 -94.94139503 22.13291312 -96.7258606 22.38485718 C-108.58739445 24.0611163 -120.43002522 25.81048083 -132.25585938 27.72460938 C-133.31482422 27.89154297 -134.37378906 28.05847656 -135.46484375 28.23046875 C-136.389021 28.37895264 -137.31319824 28.52743652 -138.26538086 28.68041992 C-141 29 -141 29 -144.28344727 28.9855957 C-146.91554564 28.68109646 -146.91554564 28.68109646 -148 30 C-149.99340319 30.36969114 -151.99726328 30.68332633 -154.00390625 30.97265625 C-155.21884766 31.14990234 -156.43378906 31.32714844 -157.68554688 31.50976562 C-158.96494141 31.69216797 -160.24433594 31.87457031 -161.5625 32.0625 C-162.84576172 32.24876953 -164.12902344 32.43503906 -165.45117188 32.62695312 C-168.63359738 33.08834567 -171.81653416 33.54585037 -175 34 C-175.33 33.34 -175.66 32.68 -176 32 C-151.47059471 26.98229582 -151.47059471 26.98229582 -140.78125 25.44921875 C-136.81457558 24.80853398 -132.94129611 23.85297428 -129.03515625 22.91796875 C-123.6121839 21.65465458 -118.14754013 20.5891515 -112.6875 19.5 C-111.68041992 19.29850342 -110.67333984 19.09700684 -109.63574219 18.8894043 C-103.94744806 17.75945688 -98.25286661 16.67143375 -92.55078125 15.61328125 C-83.47658862 13.92518583 -74.43188436 12.0942734 -65.38458252 10.26849365 C-57.51572333 8.68359975 -49.64292084 7.11833192 -41.77038574 5.55181885 C-39.15034808 5.02994706 -36.53071832 4.50606933 -33.91113281 3.98193359 C-30.16439872 3.23373532 -26.41548479 2.49770499 -22.66430664 1.77212524 C-20.6776967 1.38526191 -18.69329864 0.98709413 -16.70898438 0.58862305 C-5.54704255 -1.54692172 -5.54704255 -1.54692172 0 0 Z " fill="#FFE66B" transform="translate(426,31)"/>
<path d="M0 0 C0 0.99 0 1.98 0 3 C-32.38558739 7.91264987 -32.38558739 7.91264987 -44.625 9.75 C-45.39102539 9.86512939 -46.15705078 9.98025879 -46.94628906 10.09887695 C-48.96389514 10.40124361 -50.98193265 10.70072749 -53 11 C-54.24523437 11.23203125 -55.49046875 11.4640625 -56.7734375 11.703125 C-60.18656999 12.01716625 -61.13423897 11.62312721 -64 10 C-61.62110916 9.53637917 -59.24219945 9.07285544 -56.86328125 8.609375 C-55.74885147 8.39217804 -55.74885147 8.39217804 -54.61190796 8.17059326 C-50.52080585 7.37359702 -46.42933137 6.57858912 -42.3371582 5.78710938 C-31.75046942 3.73840866 -31.75046942 3.73840866 -21.1796875 1.609375 C-19.75402466 1.32175293 -19.75402466 1.32175293 -18.29956055 1.02832031 C-16.61683463 0.68796898 -14.93581414 0.33901615 -13.25708008 -0.02050781 C-8.49496878 -0.97116959 -4.77122364 -0.95802641 0 0 Z " fill="#FFE97C" transform="translate(426,31)"/>
</svg>
